<?xml version="1.0" encoding="UTF-8"?>
<svg version="1.1" xmlns="http://www.w3.org/2000/svg" width="385" height="100">
<path d="M0 0 C0.73003235 -0.0066568 1.4600647 -0.0133136 2.21221924 -0.02017212 C3.75538625 -0.0302793 5.2985968 -0.03498974 6.84179688 -0.03466797 C9.18174029 -0.0390227 11.51976736 -0.07530701 13.859375 -0.11328125 C28.09401732 -0.22342273 28.09401732 -0.22342273 34.453125 4.3359375 C36.29296875 6.3359375 36.29296875 6.3359375 37.390625 8.3359375 C37.77089844 8.9959375 38.15117188 9.6559375 38.54296875 10.3359375 C41.2579513 16.30190775 40.67512472 22.69321317 40.69335938 29.12548828 C40.70306137 31.19734916 40.73410986 33.26821547 40.765625 35.33984375 C40.77335937 37.31404297 40.77335937 37.31404297 40.78125 39.328125 C40.79526855 41.12805908 40.79526855 41.12805908 40.80957031 42.96435547 C40.40991584 46.74464877 39.45015923 49.11693359 37.453125 52.3359375 C32.05520291 55.93455222 25.42334487 55.41086205 19.0859375 55.265625 C7.05587702 54.8429571 7.05587702 54.8429571 -3.21728516 60.28955078 C-4.67226957 61.77263274 -6.05125899 63.28927449 -7.40234375 64.8671875 C-9.546875 67.3359375 -9.546875 67.3359375 -12.546875 68.3359375 C-13.536875 67.6759375 -14.526875 67.0159375 -15.546875 66.3359375 C-15.9210968 63.96513367 -15.9210968 63.96513367 -15.91918945 60.95581055 C-15.92541824 59.83091721 -15.93164703 58.70602386 -15.93806458 57.54704285 C-15.92885483 56.32624527 -15.91964508 55.10544769 -15.91015625 53.84765625 C-15.91065475 52.59716995 -15.91115326 51.34668365 -15.91166687 50.05830383 C-15.909322 47.40745573 -15.9011385 44.75740008 -15.88305664 42.10668945 C-15.86043838 38.71719615 -15.85981188 35.32814937 -15.86657429 31.93860149 C-15.87073183 28.69991976 -15.85872897 25.46131641 -15.84765625 22.22265625 C-15.84856766 21.00793137 -15.84947906 19.79320648 -15.85041809 18.54167175 C-15.84088608 17.40732193 -15.83135406 16.27297211 -15.8215332 15.10424805 C-15.81692581 14.10878464 -15.81231842 13.11332123 -15.80757141 12.08769226 C-15.53143062 9.17291586 -14.76381452 6.98503068 -13.546875 4.3359375 C-12.886875 4.3359375 -12.226875 4.3359375 -11.546875 4.3359375 C-11.546875 3.6759375 -11.546875 3.0159375 -11.546875 2.3359375 C-7.85884716 -0.02652123 -4.24127167 0.01352439 0 0 Z " fill="#0258F7" transform="translate(27.546875,28.6640625)"/>
<path d="M0 0 C2.1875 1.875 2.1875 1.875 4 5 C4.51691406 5.80953125 5.03382813 6.6190625 5.56640625 7.453125 C10 14.48926914 10 14.48926914 10 18 C10.66 18 11.32 18 12 18 C12.66 19.32 13.32 20.64 14 22 C14.33 21.34 14.66 20.68 15 20 C15.66 20 16.32 20 17 20 C17.10699219 19.46375 17.21398437 18.9275 17.32421875 18.375 C18.17284434 15.39254704 19.43983772 12.7800755 20.8125 10 C21.31394531 8.96875 21.81539063 7.9375 22.33203125 6.875 C24.04404134 3.924088 25.22555276 1.99191084 28 0 C30.73682971 -0.2911521 33.03940039 -0.38322418 35.75 -0.25 C36.44738281 -0.23195313 37.14476562 -0.21390625 37.86328125 -0.1953125 C39.57611539 -0.14838554 41.28823824 -0.07664605 43 0 C43.88866796 2.4252667 44.21132362 3.53446443 43.12304688 5.93188477 C42.42791992 6.9265979 42.42791992 6.9265979 41.71875 7.94140625 C40.95437622 9.05660645 40.95437622 9.05660645 40.17456055 10.19433594 C39.62195557 10.97583008 39.06935059 11.75732422 38.5 12.5625 C37.39161718 14.18338188 36.28354339 15.80447512 35.17578125 17.42578125 C33.69772761 19.56065018 32.21581209 21.69251113 30.72412109 23.81787109 C29.69799835 25.28561628 28.69172341 26.76718539 27.6875 28.25 C27.13449219 29.03890625 26.58148438 29.8278125 26.01171875 30.640625 C24.64039986 33.83860418 25.07257731 35.6840264 26 39 C27.08535318 41.1679007 27.08535318 41.1679007 28.5625 43.125 C29.09230469 43.88296875 29.62210937 44.6409375 30.16796875 45.421875 C30.77253906 46.27265625 31.37710938 47.1234375 32 48 C33.46769729 50.11854331 34.92584124 52.24373277 36.375 54.375 C37.06335938 55.37273437 37.75171875 56.37046875 38.4609375 57.3984375 C40 60 40 60 40 63 C40.66 63 41.32 63 42 63 C42.99 65.31 43.98 67.62 45 70 C39.95323169 72.52338416 31.39813274 71.43368421 26 70 C22.76737063 67.49784674 21.49592289 64.74569668 20 61 C19.27915462 59.55830925 18.55053256 58.12046833 17.8125 56.6875 C17.50441406 56.04167969 17.19632812 55.39585938 16.87890625 54.73046875 C15.81026338 52.62642968 14.50895351 50.81074421 13 49 C12.67 49.66 12.34 50.32 12 51 C11.34 51 10.68 51 10 51 C9.87689453 51.58950439 9.75378906 52.17900879 9.62695312 52.78637695 C8.63034068 56.30517953 6.49839154 59.1651648 4.5 62.1875 C4.08363281 62.82880859 3.66726563 63.47011719 3.23828125 64.13085938 C0.17484328 68.82515672 0.17484328 68.82515672 -1 70 C-2.34267413 70.08631874 -3.68974322 70.10706473 -5.03515625 70.09765625 C-5.84404297 70.09443359 -6.65292969 70.09121094 -7.48632812 70.08789062 C-8.33646484 70.07951172 -9.18660156 70.07113281 -10.0625 70.0625 C-10.91650391 70.05798828 -11.77050781 70.05347656 -12.65039062 70.04882812 C-14.76695663 70.03700373 -16.88348685 70.01906769 -19 70 C-17.02 66.37 -15.04 62.74 -13 59 C-12.34 59 -11.68 59 -11 59 C-10.77441406 58.34128906 -10.54882812 57.68257812 -10.31640625 57.00390625 C-8.24804971 52.2841253 -5.34763973 48.10709787 -2.54492188 43.79492188 C-2.10599609 43.10849609 -1.66707031 42.42207031 -1.21484375 41.71484375 C-0.81386475 41.09730225 -0.41288574 40.47976074 0.00024414 39.84350586 C1.08695652 37.839656 1.71318977 36.26515847 2 34 C0.6394582 31.39279434 -0.75165812 29.05943119 -2.375 26.625 C-2.82601074 25.92544189 -3.27702148 25.22588379 -3.74169922 24.50512695 C-5.14825794 22.32802935 -6.5715379 20.16277783 -8 18 C-9.31144148 16.00978878 -10.62138605 14.01874391 -11.92431641 12.02294922 C-12.71090563 10.82051373 -13.50461869 9.62270147 -14.30615234 8.43017578 C-17 4.33381696 -17 4.33381696 -17 1 C-4.71344285 -0.78713559 -4.71344285 -0.78713559 0 0 Z " fill="#1663F4" transform="translate(335,15)"/>
<path d="M0 0 C4.62 0 9.24 0 14 0 C14 22.77 14 45.54 14 69 C9.71 69 5.42 69 1 69 C1 67.68 1 66.36 1 65 C0.071875 65.639375 -0.85625 66.27875 -1.8125 66.9375 C-7.89191467 70.87123891 -13.94675237 70.50803704 -21 70 C-23.65245375 69.26058015 -25.58178776 68.34969985 -28 67 C-28 66.34 -28 65.68 -28 65 C-28.66 65 -29.32 65 -30 65 C-30 64.34 -30 63.68 -30 63 C-30.66 63 -31.32 63 -32 63 C-38.19539893 53.29387501 -38.67320553 44.77723916 -36.5390625 33.58203125 C-34.85763663 27.23847002 -31.17902184 22.95540679 -26 19 C-21.84567671 16.81649902 -18.15417198 16.70146252 -13.5 16.6875 C-12.2109375 16.67074219 -10.921875 16.65398438 -9.59375 16.63671875 C-5.87091158 17.01304916 -3.98930454 17.82125688 -1 20 C0.14982602 15.90996141 0.11094256 11.96822949 0.0625 7.75 C0.05798828 7.00492188 0.05347656 6.25984375 0.04882812 5.4921875 C0.03709246 3.6614236 0.0191585 1.83070127 0 0 Z M-16.9375 31.1875 C-21.25479203 37.0747164 -21.82832159 41.75985572 -21 49 C-19.75870919 52.78425957 -18.05763173 55.33202207 -14.625 57.5 C-10.13328395 58.35556496 -7.17449772 57.69402138 -3.25 55.375 C0.40103908 51.52112541 0.85953298 47.60132406 1.3125 42.4375 C0.84579163 37.30370793 -1.0244697 33.31449365 -5 30 C-9.6751033 28.45914198 -12.93649241 28.20802626 -16.9375 31.1875 Z " fill="#0F5EF5" transform="translate(298,16)"/>
<path d="M0 0 C1.27746094 -0.01675781 2.55492187 -0.03351562 3.87109375 -0.05078125 C9.7172039 0.52455022 13.5142847 2.70826799 17.3125 7.125 C17.88484375 7.77082031 18.4571875 8.41664062 19.046875 9.08203125 C23.97077058 16.32827964 22.5625 22.31468669 22.5625 31.3125 C12.0025 31.3125 1.4425 31.3125 -9.4375 31.3125 C-7.42598737 38.08739892 -7.42598737 38.08739892 -4.4375 39.3125 C-4.4375 39.9725 -4.4375 40.6325 -4.4375 41.3125 C-2.37423023 41.22489411 -0.3118284 41.11670727 1.75 41 C2.89855469 40.94199219 4.04710937 40.88398437 5.23046875 40.82421875 C8.72657419 40.28730221 10.62789463 39.19977271 13.5625 37.3125 C15.75 37.875 15.75 37.875 17.5625 39.3125 C18.8125 41.4375 18.8125 41.4375 19.5625 43.3125 C20.2225 43.3125 20.8825 43.3125 21.5625 43.3125 C21.8925 44.3025 22.2225 45.2925 22.5625 46.3125 C15.29848049 51.83315483 8.20970247 54.92384855 -1.11328125 54.06640625 C-7.23269445 53.10998344 -12.05596517 51.35865179 -17.4375 48.3125 C-17.4375 47.6525 -17.4375 46.9925 -17.4375 46.3125 C-18.0975 46.3125 -18.7575 46.3125 -19.4375 46.3125 C-25.39521423 38.67917864 -26.34261667 30.71630954 -25.4375 21.3125 C-23.72618031 12.67550398 -19.72607789 7.21661902 -12.4375 2.3125 C-8.27687475 0.1691476 -4.64934759 0.01404637 0 0 Z M-7.375 14.0625 C-9.79471629 17.23385153 -9.79471629 17.23385153 -9.4375 21.3125 C-3.8275 21.3125 1.7825 21.3125 7.5625 21.3125 C8.86431096 17.60519089 8.86431096 17.60519089 7.875 15.1875 C6.23934604 12.85085148 5.28152246 12.19434512 2.5625 11.3125 C-1.90528531 10.66264032 -4.36112112 10.67188626 -7.375 14.0625 Z " fill="#0655F2" transform="translate(177.4375,32.6875)"/>
<path d="M0 0 C2.1796875 1.1015625 2.1796875 1.1015625 5.2421875 3.1015625 C5.2421875 3.7615625 5.2421875 4.4215625 5.2421875 5.1015625 C5.9021875 5.1015625 6.5621875 5.1015625 7.2421875 5.1015625 C13.04899516 15.21664681 12.2421875 14.91314862 12.2421875 30.1015625 C1.6821875 30.1015625 -8.8778125 30.1015625 -19.7578125 30.1015625 C-17.57721417 36.94982145 -17.57721417 36.94982145 -13.7578125 39.1015625 C-6.79581685 39.88529593 -0.92097008 39.46328482 5.2421875 36.1015625 C7.57552083 38.43489583 9.90885417 40.76822917 12.2421875 43.1015625 C12.2421875 44.0915625 12.2421875 45.0815625 12.2421875 46.1015625 C2.81197155 51.75969207 -5.97620406 54.40651518 -16.9453125 51.9765625 C-24.39488944 49.82764608 -28.79707037 47.33308738 -32.6328125 40.4765625 C-36.41820952 32.05624041 -36.85499755 22.82999309 -33.7578125 14.1015625 C-26.85818604 0.88420578 -14.75492997 -4.80684687 0 0 Z M-18.7578125 14.1015625 C-19.0878125 16.0815625 -19.4178125 18.0615625 -19.7578125 20.1015625 C-13.8178125 20.1015625 -7.8778125 20.1015625 -1.7578125 20.1015625 C-2.83532515 14.71399923 -3.54076039 13.38149192 -7.7578125 10.1015625 C-12.74560444 9.16635151 -15.35607104 10.4082432 -18.7578125 14.1015625 Z " fill="#2E71F3" transform="translate(241.7578125,33.8984375)"/>
<path d="M0 0 C1.15461983 0.00303635 1.15461983 0.00303635 2.33256531 0.00613403 C3.51479927 0.00469894 3.51479927 0.00469894 4.72091675 0.00323486 C6.39298075 0.00255286 8.06504738 0.00440851 9.73710632 0.00857544 C12.29177351 0.0139022 14.84626316 0.00864219 17.40092468 0.00222778 C19.02397195 0.00288898 20.6470191 0.004171 22.27006531 0.00613403 C23.03373917 0.0041098 23.79741302 0.00208557 24.58422852 0 C28.13057173 0.01558613 31.0324849 0.27193424 34.50053406 1.13894653 C34.50053406 5.75894653 34.50053406 10.37894653 34.50053406 15.13894653 C26.25053406 15.13894653 18.00053406 15.13894653 9.50053406 15.13894653 C9.50053406 19.75894653 9.50053406 24.37894653 9.50053406 29.13894653 C16.76053406 29.13894653 24.02053406 29.13894653 31.50053406 29.13894653 C31.50053406 33.75894653 31.50053406 38.37894653 31.50053406 43.13894653 C24.24053406 43.13894653 16.98053406 43.13894653 9.50053406 43.13894653 C9.50053406 52.04894653 9.50053406 60.95894653 9.50053406 70.13894653 C4.22053406 70.13894653 -1.05946594 70.13894653 -6.49946594 70.13894653 C-6.52201893 61.15973547 -6.54038217 52.18054308 -6.55127811 43.20131016 C-6.55650645 39.03231826 -6.56360321 34.86334667 -6.5749054 30.69436646 C-6.58573602 26.67436968 -6.59174315 22.65439249 -6.59434319 18.63438225 C-6.59619712 17.09731678 -6.59981713 15.56025244 -6.605196 14.02319527 C-6.61240878 11.87759167 -6.61345679 9.73206998 -6.61299133 7.5864563 C-6.61521194 6.36289932 -6.61743256 5.13934235 -6.61972046 3.87870789 C-6.40746854 -0.95703232 -4.31097255 0.01919982 0 0 Z " fill="#1662F3" transform="translate(116.49946594238281,14.861053466796875)"/>
<path d="M0 0 C3.63 0 7.26 0 11 0 C11 22.11 11 44.22 11 67 C7.37 67 3.74 67 0 67 C-0.12375 66.030625 -0.2475 65.06125 -0.375 64.0625 C-0.58125 63.051875 -0.7875 62.04125 -1 61 C-1.66 60.67 -2.32 60.34 -3 60 C-3 58.68 -3 57.36 -3 56 C-2.34 56 -1.68 56 -1 56 C-0.97494385 55.37955811 -0.9498877 54.75911621 -0.92407227 54.11987305 C-0.80803279 51.30887603 -0.68534241 48.49820759 -0.5625 45.6875 C-0.52318359 44.71103516 -0.48386719 43.73457031 -0.44335938 42.72851562 C-0.40146484 41.79072266 -0.35957031 40.85292969 -0.31640625 39.88671875 C-0.27974854 39.02264404 -0.24309082 38.15856934 -0.20532227 37.26831055 C0 35 0 35 1 32 C-0.485 32.495 -0.485 32.495 -2 33 C-4.0245738 31.06745228 -5.42105792 29.36841312 -7 27 C-9.88595946 26.41518879 -9.88595946 26.41518879 -13.125 26.3125 C-14.22070312 26.24675781 -15.31640625 26.18101563 -16.4453125 26.11328125 C-17.28835938 26.07589844 -18.13140625 26.03851563 -19 26 C-19 24.33333333 -19 22.66666667 -19 21 C-19.99 20.67 -20.98 20.34 -22 20 C-22 19.34 -22 18.68 -22 18 C-19.77144426 17.9185778 -17.54202345 17.86061921 -15.3125 17.8125 C-13.45044922 17.76029297 -13.45044922 17.76029297 -11.55078125 17.70703125 C-7.75113138 18.02053371 -6.04700854 18.79612167 -3 21 C-2.01 21.66 -1.02 22.32 0 23 C0 15.41 0 7.82 0 0 Z " fill="#0358F6" transform="translate(300,17)"/>
<path d="M0 0 C1.27746094 -0.01675781 2.55492187 -0.03351562 3.87109375 -0.05078125 C9.7172039 0.52455022 13.5142847 2.70826799 17.3125 7.125 C17.88484375 7.77082031 18.4571875 8.41664062 19.046875 9.08203125 C23.97077058 16.32827964 22.5625 22.31468669 22.5625 31.3125 C12.0025 31.3125 1.4425 31.3125 -9.4375 31.3125 C-9.7675 32.6325 -10.0975 33.9525 -10.4375 35.3125 C-10.4375 33.3325 -10.4375 31.3525 -10.4375 29.3125 C1.9375 28.8175 1.9375 28.8175 14.5625 28.3125 C13.9025 27.6525 13.2425 26.9925 12.5625 26.3125 C11.9025 26.9725 11.2425 27.6325 10.5625 28.3125 C10.5625 26.9925 10.5625 25.6725 10.5625 24.3125 C2.1475 24.8075 2.1475 24.8075 -6.4375 25.3125 C-6.4375 24.6525 -6.4375 23.9925 -6.4375 23.3125 C-7.7575 23.3125 -9.0775 23.3125 -10.4375 23.3125 C-10.62231808 19.24650218 -10.28629356 16.88683421 -8.4375 13.3125 C-8.7675 12.3225 -9.0975 11.3325 -9.4375 10.3125 C-10.4275 10.8075 -10.4275 10.8075 -11.4375 11.3125 C-11.4375 9.6625 -11.4375 8.0125 -11.4375 6.3125 C-12.4275 6.3125 -13.4175 6.3125 -14.4375 6.3125 C-14.4375 6.9725 -14.4375 7.6325 -14.4375 8.3125 C-15.0975 8.3125 -15.7575 8.3125 -16.4375 8.3125 C-16.4375 9.9625 -16.4375 11.6125 -16.4375 13.3125 C-17.4275 12.9825 -18.4175 12.6525 -19.4375 12.3125 C-19.7675 13.3025 -20.0975 14.2925 -20.4375 15.3125 C-21.0975 15.3125 -21.7575 15.3125 -22.4375 15.3125 C-22.7675 16.3025 -23.0975 17.2925 -23.4375 18.3125 C-22.47643382 11.58503672 -19.33259748 7.9546049 -14.3515625 3.64453125 C-9.70128086 0.40831484 -5.60467757 0.01693256 0 0 Z M-7.375 14.0625 C-9.79471629 17.23385153 -9.79471629 17.23385153 -9.4375 21.3125 C-3.8275 21.3125 1.7825 21.3125 7.5625 21.3125 C8.86431096 17.60519089 8.86431096 17.60519089 7.875 15.1875 C6.23934604 12.85085148 5.28152246 12.19434512 2.5625 11.3125 C-1.90528531 10.66264032 -4.36112112 10.67188626 -7.375 14.0625 Z " fill="#1D66F1" transform="translate(177.4375,32.6875)"/>
<path d="M0 0 C1.65 0.33 3.3 0.66 5 1 C3.35 2.32 1.7 3.64 0 5 C0.66 5.66 1.32 6.32 2 7 C3.50858361 10.84003102 2.75368464 12.47789217 2 17 C8.6 17 15.2 17 22 17 C21.505 13.535 21.505 13.535 21 10 C22.32 10 23.64 10 25 10 C25.33 8.68 25.66 7.36 26 6 C28.475 6.495 28.475 6.495 31 7 C31.495 9.475 31.495 9.475 32 12 C32.66 12 33.32 12 34 12 C34 16.29 34 20.58 34 25 C23.11 25 12.22 25 1 25 C0.67 25.66 0.34 26.32 0 27 C-0.99 26.01 -1.98 25.02 -3 24 C-3.99 24.33 -4.98 24.66 -6 25 C-6.66 24.67 -7.32 24.34 -8 24 C-8 25.98 -8 27.96 -8 30 C-8.99 29.67 -9.98 29.34 -11 29 C-11.13615919 25.99844627 -11.2346398 23.003179 -11.3125 20 C-11.3753418 18.74123047 -11.3753418 18.74123047 -11.43945312 17.45703125 C-11.56493539 10.98214649 -9.95100711 7.10290163 -6 2 C-4.68 2.33 -3.36 2.66 -2 3 C-1.34 2.01 -0.68 1.02 0 0 Z " fill="#0759F2" transform="translate(219,38)"/>
<path d="M0 0 C2.1875 1.875 2.1875 1.875 4 5 C4.51691406 5.80953125 5.03382813 6.6190625 5.56640625 7.453125 C10 14.48926914 10 14.48926914 10 18 C10.66 18 11.32 18 12 18 C11.835 18.928125 11.67 19.85625 11.5 20.8125 C10.92251612 23.95621353 10.92251612 23.95621353 11 27 C9.86280581 30.41158256 8.95657056 31.11854601 6 33 C5.34 33 4.68 33 4 33 C3.855625 34.0725 3.71125 35.145 3.5625 36.25 C2.6557377 42.29508197 2.6557377 42.29508197 2 44 C0.515 44.495 0.515 44.495 -1 45 C-1.33 45.825 -1.66 46.65 -2 47.5 C-2.33 48.325 -2.66 49.15 -3 50 C-4.485 50.495 -4.485 50.495 -6 51 C-4.36866718 46.48001443 -2.01251913 43.09627837 0.85546875 39.28125 C2.19114976 37.07061475 2.19114976 37.07061475 1.92578125 34.62109375 C0.74285361 31.27196107 -1.02678349 28.48540173 -3 25.5625 C-3.39501709 24.96139404 -3.79003418 24.36028809 -4.19702148 23.7409668 C-5.45774385 21.82262775 -6.72811296 19.91095145 -8 18 C-9.69659873 15.44335964 -11.38224163 12.87989962 -13.0625 10.3125 C-13.45630859 9.72476807 -13.85011719 9.13703613 -14.25585938 8.53149414 C-17 4.33857981 -17 4.33857981 -17 1 C-4.71344285 -0.78713559 -4.71344285 -0.78713559 0 0 Z " fill="#115FF5" transform="translate(335,15)"/>
<path d="M0 0 C7.82611921 0.21189853 15.11689979 2.65404248 22.4375 5.25 C22.4375 5.91 22.4375 6.57 22.4375 7.25 C23.05625 7.394375 23.675 7.53875 24.3125 7.6875 C26.4375 8.25 26.4375 8.25 28.4375 9.25 C28.4375 9.91 28.4375 10.57 28.4375 11.25 C29.0975 11.25 29.7575 11.25 30.4375 11.25 C30.4375 11.91 30.4375 12.57 30.4375 13.25 C31.0975 13.25 31.7575 13.25 32.4375 13.25 C40.25045658 22.65166363 43.09965014 33.1153789 42.4375 45.25 C40.9453125 47.19921875 40.9453125 47.19921875 39.4375 48.25 C37.5 47.75 37.5 47.75 35.4375 46.25 C34.8125 42.625 34.8125 42.625 34.63671875 40.4609375 C33.84998871 31.7297767 30.91450433 24.1155355 24.1875 18.375 C23.48109375 17.82070313 22.7746875 17.26640625 22.046875 16.6953125 C21.51578125 16.21835937 20.9846875 15.74140625 20.4375 15.25 C20.4375 14.59 20.4375 13.93 20.4375 13.25 C12.27843785 10.19035169 3.99211348 8.73000061 -4.5625 7.25 C-5.1875 4.875 -5.1875 4.875 -5.5625 2.25 C-3.5625 0.25 -3.5625 0.25 0 0 Z " fill="#2E6EEF" transform="translate(49.5625,3.75)"/>
<path d="M0 0 C0.99 0 1.98 0 3 0 C3.66 0.99 4.32 1.98 5 3 C5.66 3 6.32 3 7 3 C6.28547412 7.76350585 5.20465156 12.34201396 4 17 C5.32 17 6.64 17 8 17 C8 17.66 8 18.32 8 19 C8.66 18.67 9.32 18.34 10 18 C12.71262116 17.7677354 15.40773126 17.58063765 18.125 17.4375 C18.87910156 17.39431641 19.63320312 17.35113281 20.41015625 17.30664062 C22.27321888 17.2005168 24.13658524 17.09974999 26 17 C26 17.99 26 18.98 26 20 C26.99 20 27.98 20 29 20 C29 20.66 29 21.32 29 22 C29.66 22.33 30.32 22.66 31 23 C17.635 23.495 17.635 23.495 4 24 C3.68377223 29.57836298 3.68377223 29.57836298 5 33 C4.01 33 3.02 33 2 33 C2 33.66 2 34.32 2 35 C1.34 35 0.68 35 0 35 C0 35.66 0 36.32 0 37 C-1.98 37.495 -1.98 37.495 -4 38 C-5.80411967 35.24075815 -6.0127245 34.11027897 -5.625 30.75 C-5.315625 29.38875 -5.315625 29.38875 -5 28 C-5.99 28 -6.98 28 -8 28 C-9.12050151 24.63849548 -9.13296652 22.03713274 -9.125 18.5 C-9.12757813 17.3553125 -9.13015625 16.210625 -9.1328125 15.03125 C-8.99218993 11.82174665 -8.72125314 9.81532964 -6.5625 7.375 C-5 6 -5 6 -3 5 C-2.67 4.01 -2.34 3.02 -2 2 C-1.34 2 -0.68 2 0 2 C0 1.34 0 0.68 0 0 Z " fill="#0358F6" transform="translate(163,39)"/>
<path d="M0 0 C4.62 0 9.24 0 14 0 C14 22.77 14 45.54 14 69 C9.71 69 5.42 69 1 69 C1 67.68 1 66.36 1 65 C0.01 64.505 0.01 64.505 -1 64 C-0.505 63.01 -0.505 63.01 0 62 C0.66 62 1.32 62 2 62 C2 63.98 2 65.96 2 68 C5.63 68 9.26 68 13 68 C13 45.89 13 23.78 13 1 C9.37 1 5.74 1 2 1 C2 8.59 2 16.18 2 24 C-2 22 -2 22 -3.796875 20.9140625 C-6.92932918 19.61442726 -9.87583566 19.56245357 -13.25 19.375 C-14.51328125 19.30023438 -15.7765625 19.22546875 -17.078125 19.1484375 C-18.04234375 19.09945312 -19.0065625 19.05046875 -20 19 C-20 19.66 -20 20.32 -20 21 C-18.02 21.33 -16.04 21.66 -14 22 C-14.99 23.32 -15.98 24.64 -17 26 C-15.75283203 26.03867187 -15.75283203 26.03867187 -14.48046875 26.078125 C-13.39378906 26.13484375 -12.30710937 26.1915625 -11.1875 26.25 C-10.10855469 26.29640625 -9.02960938 26.3428125 -7.91796875 26.390625 C-5 27 -5 27 -3.11328125 29.046875 C-2.74589844 29.69140625 -2.37851562 30.3359375 -2 31 C-2.33 31.66 -2.66 32.32 -3 33 C-3.70125 32.505 -4.4025 32.01 -5.125 31.5 C-8.51250333 29.73260696 -10.2335258 29.3722543 -14 30 C-17.10164769 32.55024365 -18.72566416 34.17699247 -20 38 C-20.48463666 44.02067848 -20.84804868 49.02960379 -17 54 C-17 54.66 -17 55.32 -17 56 C-18.32 55.67 -19.64 55.34 -21 55 C-22.39447913 49.88690985 -23.29331023 45.07500347 -23.65625 39.78515625 C-23.7696875 39.19605469 -23.883125 38.60695312 -24 38 C-24.66 37.67 -25.32 37.34 -26 37 C-26 36.34 -26 35.68 -26 35 C-27.98 35 -29.96 35 -32 35 C-31.67 33.35 -31.34 31.7 -31 30 C-33.10232344 32.8684413 -33.10232344 32.8684413 -34 36 C-34.66 36 -35.32 36 -36 36 C-36.57294686 31.12995165 -34.94689289 28.79994083 -32 25 C-27.64749901 19.97971804 -24.27657406 17.274235 -17.40625 16.69921875 C-15.47265625 16.69341797 -15.47265625 16.69341797 -13.5 16.6875 C-12.2109375 16.67074219 -10.921875 16.65398438 -9.59375 16.63671875 C-5.87091158 17.01304916 -3.98930454 17.82125688 -1 20 C0.14982602 15.90996141 0.11094256 11.96822949 0.0625 7.75 C0.05798828 7.00492188 0.05347656 6.25984375 0.04882812 5.4921875 C0.03709246 3.6614236 0.0191585 1.83070127 0 0 Z " fill="#2269F1" transform="translate(298,16)"/>
<path d="M0 0 C1.010625 0.66 2.02125 1.32 3.0625 2 C3.0625 2.66 3.0625 3.32 3.0625 4 C3.7225 4 4.3825 4 5.0625 4 C10.86930766 14.11508431 10.0625 13.81158612 10.0625 29 C-0.4975 29 -11.0575 29 -21.9375 29 C-22.4325 30.485 -22.4325 30.485 -22.9375 32 C-22.9375 30.68 -22.9375 29.36 -22.9375 28 C-12.3775 28 -1.8175 28 9.0625 28 C9.0625 23.71 9.0625 19.42 9.0625 15 C8.4025 15 7.7425 15 7.0625 15 C6.815 14.195625 6.5675 13.39125 6.3125 12.5625 C5.34011141 9.828919 5.34011141 9.828919 2.9375 9.1875 C2.31875 9.125625 1.7 9.06375 1.0625 9 C0.7325 10.65 0.4025 12.3 0.0625 14 C-2.125 14.8125 -2.125 14.8125 -4.9375 15 C-6.60416667 13.33333333 -8.27083333 11.66666667 -9.9375 10 C-12.9375 9.16666667 -12.9375 9.16666667 -15.9375 10 C-19.61028755 12.93823004 -20.78332549 14.38330197 -21.9375 19 C-15.9975 19 -10.0575 19 -3.9375 19 C-3.6075 18.01 -3.2775 17.02 -2.9375 16 C-2.9375 17.32 -2.9375 18.64 -2.9375 20 C-9.5375 20 -16.1375 20 -22.9375 20 C-22.9375 17.03 -22.9375 14.06 -22.9375 11 C-23.5975 10.67 -24.2575 10.34 -24.9375 10 C-24.9375 7 -24.9375 7 -23.4375 5.3125 C-22.9425 4.879375 -22.4475 4.44625 -21.9375 4 C-25.0690587 4.89767656 -25.0690587 4.89767656 -27.9375 7 C-27.9375 6.34 -27.9375 5.68 -27.9375 5 C-28.5975 4.67 -29.2575 4.34 -29.9375 4 C-21.74665985 -3.02072013 -9.95166889 -5.02933804 0 0 Z " fill="#5E90F4" transform="translate(243.9375,35)"/>
<path d="M0 0 C8.49822736 0.12205713 16.22099398 3.95404598 22.625 9.3125 C29.30169276 16.71099738 29.8176819 23.67840518 29.625 33.3125 C28.305 33.9725 26.985 34.6325 25.625 35.3125 C22.76548702 32.92569784 22.19145449 31.20909202 21.6875 27.5625 C20.60527468 21.47720023 18.76716355 17.34480901 14.1875 13 C9.29465049 9.77787959 4.53996898 8.83345431 -1.16796875 7.875 C-3.375 7.3125 -3.375 7.3125 -5.375 5.3125 C-4.73705225 1.10204482 -4.38131418 0.40567724 0 0 Z " fill="#5485ED" transform="translate(49.375,16.6875)"/>
<path d="M0 0 C0.66 0.33 1.32 0.66 2 1 C1.67 2.32 1.34 3.64 1 5 C1.78375 5.12375 2.5675 5.2475 3.375 5.375 C6 6 6 6 8 8 C8.33 8 8.66 8 9 8 C9.66 12.62 10.32 17.24 11 22 C9.68 22.33 8.36 22.66 7 23 C5.82923301 26.98060777 4.74250597 30.91621717 4 35 C3.505 33.515 3.505 33.515 3 32 C1.35 31.67 -0.3 31.34 -2 31 C-4.91027101 23.42231322 -7.41617176 15.05390585 -5 7 C-4.01 7 -3.02 7 -2 7 C-1.855625 6.030625 -1.71125 5.06125 -1.5625 4.0625 C-1 1 -1 1 0 0 Z " fill="#1060F5" transform="translate(266,45)"/>
<path d="M0 0 C1.03930664 0.01353516 1.03930664 0.01353516 2.09960938 0.02734375 C3.79572395 0.05073843 5.49165871 0.08660359 7.1875 0.125 C7.1875 0.785 7.1875 1.445 7.1875 2.125 C5.5375 2.125 3.8875 2.125 2.1875 2.125 C2.1875 3.445 2.1875 4.765 2.1875 6.125 C2.1875 7.445 2.1875 8.765 2.1875 10.125 C1.115 10.16625 0.0425 10.2075 -1.0625 10.25 C-4.9959045 10.77406507 -4.9959045 10.77406507 -7.1875 13.9375 C-8.97998575 17.15871782 -8.97998575 17.15871782 -9.8125 21.125 C-3.8725 21.125 2.0675 21.125 8.1875 21.125 C8.5175 20.135 8.8475 19.145 9.1875 18.125 C9.1875 19.445 9.1875 20.765 9.1875 22.125 C2.5875 22.125 -4.0125 22.125 -10.8125 22.125 C-10.8125 19.155 -10.8125 16.185 -10.8125 13.125 C-11.4725 12.795 -12.1325 12.465 -12.8125 12.125 C-12.8125 9.125 -12.8125 9.125 -11.3125 7.4375 C-10.8175 7.004375 -10.3225 6.57125 -9.8125 6.125 C-12.9440587 7.02267656 -12.9440587 7.02267656 -15.8125 9.125 C-15.8125 8.465 -15.8125 7.805 -15.8125 7.125 C-16.4725 6.795 -17.1325 6.465 -17.8125 6.125 C-11.96664118 1.11426386 -7.64537028 -0.19021974 0 0 Z " fill="#4580F1" transform="translate(231.8125,32.875)"/>
<path d="M0 0 C1.32 0.66 2.64 1.32 4 2 C3.01 2 2.02 2 1 2 C0.67 4.31 0.34 6.62 0 9 C-1.65 9 -3.3 9 -5 9 C-5 9.66 -5 10.32 -5 11 C-7.22889496 11.05428973 -9.45817471 11.09292338 -11.6875 11.125 C-13.54955078 11.15980469 -13.54955078 11.15980469 -15.44921875 11.1953125 C-18.81237857 11.01032021 -20.9985587 10.45767895 -24 9 C-23.34 7.02 -22.68 5.04 -22 3 C-19.43795456 2.66280953 -16.87545682 2.33012847 -14.3125 2 C-13.59126953 1.90460938 -12.87003906 1.80921875 -12.12695312 1.7109375 C-8.37736309 1.23153786 -4.78415828 1 -1 1 C-0.67 0.67 -0.34 0.34 0 0 Z " fill="#0357F4" transform="translate(191,74)"/>
<path d="M0 0 C4.62 0 9.24 0 14 0 C14 22.77 14 45.54 14 69 C9.71 69 5.42 69 1 69 C1 67.68 1 66.36 1 65 C0.34 64.67 -0.32 64.34 -1 64 C-0.67 63.34 -0.34 62.68 0 62 C0.66 62 1.32 62 2 62 C2 63.98 2 65.96 2 68 C5.63 68 9.26 68 13 68 C13 45.89 13 23.78 13 1 C9.37 1 5.74 1 2 1 C2 8.59 2 16.18 2 24 C-2 22 -2 22 -3.734375 20.8828125 C-7.17548387 19.54196663 -10.61572907 19.79152735 -14.25 19.875 C-14.99507813 19.88402344 -15.74015625 19.89304687 -16.5078125 19.90234375 C-18.33868059 19.92581642 -20.16938238 19.96168475 -22 20 C-21.505 18.515 -21.505 18.515 -21 17 C-18.60347472 16.91860858 -16.20974564 16.85932991 -13.8125 16.8125 C-13.13896484 16.78736328 -12.46542969 16.76222656 -11.77148438 16.73632812 C-7.29135252 16.67076522 -4.60559001 17.33256351 -1 20 C0.14982602 15.90996141 0.11094256 11.96822949 0.0625 7.75 C0.05798828 7.00492188 0.05347656 6.25984375 0.04882812 5.4921875 C0.03709246 3.6614236 0.0191585 1.83070127 0 0 Z " fill="#7497DF" transform="translate(298,16)"/>
<path d="M0 0 C2.41412516 1.93130012 4.13224516 3.94810899 5.875 6.5 C5.875 7.49 5.875 8.48 5.875 9.5 C-3.00654062 14.82892437 -11.84689355 17.87248112 -22.25 15.5625 C-23.54585126 15.22396446 -24.83944062 14.87573112 -26.125 14.5 C-26.125 14.17 -26.125 13.84 -26.125 13.5 C-24.26294922 13.51740234 -24.26294922 13.51740234 -22.36328125 13.53515625 C-20.72135568 13.54453868 -19.07942847 13.5536384 -17.4375 13.5625 C-16.62087891 13.57087891 -15.80425781 13.57925781 -14.96289062 13.58789062 C-10.88000916 13.60442051 -7.10848293 13.53035098 -3.125 12.5 C-4.445 12.17 -5.765 11.84 -7.125 11.5 C-7.125 9.85 -7.125 8.2 -7.125 6.5 C-11.085 6.17 -15.045 5.84 -19.125 5.5 C-19.125 5.17 -19.125 4.84 -19.125 4.5 C-15.495 4.5 -11.865 4.5 -8.125 4.5 C-8.125 3.84 -8.125 3.18 -8.125 2.5 C-2.78519417 -0.65533981 -2.78519417 -0.65533981 0 0 Z " fill="#0856F2" transform="translate(248.125,70.5)"/>
<path d="M0 0 C3.1344569 2.56455565 3.93431801 5.14686608 5 9 C5.3546516 13.31256344 5.32963941 17.61420398 5.31567383 21.94042969 C5.3125082 23.99467794 5.33603289 26.04749116 5.36132812 28.1015625 C5.36197266 29.40867187 5.36261719 30.71578125 5.36328125 32.0625 C5.36626221 33.24972656 5.36924316 34.43695313 5.37231445 35.66015625 C4.95388564 39.41366853 3.98024469 41.79861894 2 45 C-3.42553091 48.6170206 -10.26888369 48.01437085 -16.6484375 48.17578125 C-17.59074219 48.19962891 -18.53304687 48.22347656 -19.50390625 48.24804688 C-21.44117016 48.29153647 -23.37875036 48.32249751 -25.31640625 48.34179688 C-30.90100115 48.41140523 -30.90100115 48.41140523 -35.6640625 51.04296875 C-36.10492188 51.68878906 -36.54578125 52.33460937 -37 53 C-37.66 52.67 -38.32 52.34 -39 52 C-38.34 51.34 -37.68 50.68 -37 50 C-36.3574765 47.93125966 -36.3574765 47.93125966 -36 46 C-35.0212793 45.97494385 -34.04255859 45.9498877 -33.03417969 45.92407227 C-29.39619296 45.82976017 -25.75838657 45.72959797 -22.12060547 45.62768555 C-20.54740626 45.58442662 -18.97416283 45.54274526 -17.40087891 45.50268555 C-15.13690885 45.44476338 -12.87315949 45.38113286 -10.609375 45.31640625 C-9.55759064 45.29133751 -9.55759064 45.29133751 -8.48455811 45.26576233 C-5.19766179 45.16648978 -2.14857995 44.99187328 1 44 C1 42.35 1 40.7 1 39 C1.33 39 1.66 39 2 39 C2.33 28.77 2.66 18.54 3 8 C2.34 8 1.68 8 1 8 C0.505 4.04 0.505 4.04 0 0 Z " fill="#99B2E8" transform="translate(63,36)"/>
<path d="M0 0 C4.15416573 0.08293253 6.96965071 1.41887392 10.546875 3.42578125 C12.76133855 4.57559886 14.93492899 4.93135073 17.375 5.375 C17.705 6.035 18.035 6.695 18.375 7.375 C20.01863134 8.09659424 21.68550386 8.76851421 23.375 9.375 C23.045 10.365 22.715 11.355 22.375 12.375 C16.12419485 11.85409957 10.32845334 10.71595136 4.26953125 9.09375 C1.31847706 8.36096461 -1.62087263 7.83785814 -4.625 7.375 C-5.25 5 -5.25 5 -5.625 2.375 C-3.625 0.375 -3.625 0.375 0 0 Z " fill="#3E79EE" transform="translate(49.625,3.625)"/>
<path d="M0 0 C0.66 0 1.32 0 2 0 C2 3.96 2 7.92 2 12 C-6.58 12 -15.16 12 -24 12 C-23.67 10.35 -23.34 8.7 -23 7 C-21.04174127 6.97305149 -19.08337774 6.95362782 -17.125 6.9375 C-16.03445312 6.92589844 -14.94390625 6.91429687 -13.8203125 6.90234375 C-11 7 -11 7 -9 8 C-8.34 7.01 -7.68 6.02 -7 5 C-4.03 5.495 -4.03 5.495 -1 6 C-1.020625 5.195625 -1.04125 4.39125 -1.0625 3.5625 C-1 1 -1 1 0 0 Z " fill="#0159F7" transform="translate(250,50)"/>
<path d="M0 0 C0.66 0 1.32 0 2 0 C2 0.99 2 1.98 2 3 C2.66 3 3.32 3 4 3 C4 4.32 4 5.64 4 7 C4.99 7 5.98 7 7 7 C7.24878997 9.43694274 7.47463404 11.87238389 7.6875 14.3125 C7.79674805 15.34793945 7.79674805 15.34793945 7.90820312 16.40429688 C8.33135078 21.55674183 8.33135078 21.55674183 6.51953125 23.98046875 C6.01808594 24.31691406 5.51664062 24.65335938 5 25 C3.0625 24.5 3.0625 24.5 1 23 C0.42594183 20.23408337 0.16635883 17.80250637 0 15 C-0.10183594 13.89527344 -0.20367187 12.79054688 -0.30859375 11.65234375 C-1.14788732 2.29577465 -1.14788732 2.29577465 0 0 Z " fill="#0757F3" transform="translate(84,27)"/>
<path d="M0 0 C0.74426239 -0.00191345 1.48852478 -0.0038269 2.25534058 -0.00579834 C3.82371358 -0.00715604 5.39209797 -0.0034886 6.96044922 0.00488281 C9.36581469 0.01561887 11.77043847 0.00495836 14.17578125 -0.0078125 C15.70052248 -0.00649142 17.22526326 -0.00393011 18.75 0 C19.47083771 -0.00404846 20.19167542 -0.00809692 20.93435669 -0.01226807 C26.0122431 0.0356806 26.0122431 0.0356806 28.2421875 2.265625 C16.3621875 2.265625 4.4821875 2.265625 -7.7578125 2.265625 C-8.0878125 3.915625 -8.4178125 5.565625 -8.7578125 7.265625 C-10.7578125 8.453125 -10.7578125 8.453125 -12.7578125 9.265625 C-14.03500056 11.82000112 -13.91742715 13.68151281 -13.96313477 16.54150391 C-13.98307999 17.6424942 -14.00302521 18.7434845 -14.02357483 19.87783813 C-14.04028732 21.07057343 -14.05699982 22.26330872 -14.07421875 23.4921875 C-14.09499985 24.71014008 -14.11578094 25.92809265 -14.13719177 27.18295288 C-14.20273834 31.0854512 -14.26159605 34.9880185 -14.3203125 38.890625 C-14.36349285 41.53125722 -14.40710698 44.17188239 -14.45117188 46.8125 C-14.55842494 53.29680143 -14.66018179 59.78117194 -14.7578125 66.265625 C-15.0878125 66.265625 -15.4178125 66.265625 -15.7578125 66.265625 C-15.80421806 58.92012992 -15.83972339 51.57466661 -15.86143684 44.22905445 C-15.87185989 40.81793338 -15.88599188 37.40691283 -15.90869141 33.99584961 C-15.93464254 30.07146419 -15.94429755 26.14711904 -15.953125 22.22265625 C-15.96344757 21.00165726 -15.97377014 19.78065826 -15.98440552 18.5226593 C-15.98455658 17.3818541 -15.98470764 16.24104889 -15.98486328 15.06567383 C-15.9893045 14.06417801 -15.99374573 13.06268219 -15.99832153 12.03083801 C-15.74331498 9.09894209 -14.98475912 6.92597177 -13.7578125 4.265625 C-13.0978125 4.265625 -12.4378125 4.265625 -11.7578125 4.265625 C-11.7578125 3.605625 -11.7578125 2.945625 -11.7578125 2.265625 C-8.01917923 -0.16093233 -4.30429137 -0.02431086 0 0 Z " fill="#BFCFF4" transform="translate(27.7578125,28.734375)"/>
<path d="M0 0 C3.3 0.33 6.6 0.66 10 1 C10 1.66 10 2.32 10 3 C10.66 3.33 11.32 3.66 12 4 C11.34 4 10.68 4 10 4 C10 4.66 10 5.32 10 6 C10.99 6 11.98 6 13 6 C13.33 5.34 13.66 4.68 14 4 C14 4.99 14 5.98 14 7 C6.51275269 10.40575148 -1.38230672 9.70851317 -9 7 C-9.33 5.68 -9.66 4.36 -10 3 C-7.98177083 3.09765625 -5.96354167 3.1953125 -3.9453125 3.29296875 C-3.30335938 3.19628906 -2.66140625 3.09960938 -2 3 C-1.34 2.01 -0.68 1.02 0 0 Z " fill="#0257F5" transform="translate(231,76)"/>
<path d="M0 0 C2.1875 0.5625 2.1875 0.5625 4 2 C5.25 4.125 5.25 4.125 6 6 C6.66 6 7.32 6 8 6 C8.33 6.99 8.66 7.98 9 9 C1.70280261 14.54587002 -5.58221726 17.83931373 -14.95703125 16.61328125 C-17.65170327 16.12554216 -20.32703239 15.59453875 -23 15 C-19.18483536 13.69937569 -15.72438237 14.10630147 -11.75 14.4375 C-9.85507813 14.59025391 -9.85507813 14.59025391 -7.921875 14.74609375 C-6.95765625 14.82988281 -5.9934375 14.91367188 -5 15 C-5 14.34 -5 13.68 -5 13 C-3.35 13 -1.7 13 0 13 C0.33 10.36 0.66 7.72 1 5 C0.01 5.495 0.01 5.495 -1 6 C-3.88912732 5.91061582 -6.74393255 5.765952 -9.625 5.5625 C-10.42679688 5.51029297 -11.22859375 5.45808594 -12.0546875 5.40429688 C-14.03679103 5.27451629 -16.01844499 5.13790265 -18 5 C-18 4.67 -18 4.34 -18 4 C-17.11957031 3.96261719 -16.23914063 3.92523438 -15.33203125 3.88671875 C-13.58986328 3.78810547 -13.58986328 3.78810547 -11.8125 3.6875 C-10.66394531 3.62949219 -9.51539063 3.57148437 -8.33203125 3.51171875 C-4.83592581 2.97480221 -2.93460537 1.88727271 0 0 Z " fill="#5E8CEA" transform="translate(191,70)"/>
<path d="M0 0 C1.18579147 -0.0049926 1.18579147 -0.0049926 2.39553833 -0.01008606 C4.07179175 -0.0151591 5.74805531 -0.01749427 7.42431641 -0.01733398 C9.99007858 -0.01951617 12.55540799 -0.03765564 15.12109375 -0.05664062 C16.74739436 -0.05957532 18.37369702 -0.06155961 20 -0.0625 C21.15325272 -0.07327827 21.15325272 -0.07327827 22.32980347 -0.08427429 C26.13754474 -0.06794204 27.88642832 0.00371263 31.1328125 2.16796875 C18.5928125 2.16796875 6.0528125 2.16796875 -6.8671875 2.16796875 C-6.8671875 24.27796875 -6.8671875 46.38796875 -6.8671875 69.16796875 C-7.1971875 69.16796875 -7.5271875 69.16796875 -7.8671875 69.16796875 C-8.02078172 60.31923233 -8.1689634 51.47042694 -8.3101511 42.6214838 C-8.37587541 38.51298609 -8.44349489 34.40453746 -8.51538086 30.29614258 C-8.58462925 26.33456532 -8.64898396 22.37293656 -8.70988274 18.41122246 C-8.73403986 16.89645924 -8.75998864 15.38172353 -8.78772163 13.86702156 C-8.82613464 11.75261876 -8.85829232 9.63820953 -8.88891602 7.52368164 C-8.90890152 6.31788956 -8.92888702 5.11209747 -8.94947815 3.86976624 C-8.78256908 -1.61025513 -4.38306236 0.00631088 0 0 Z " fill="#597EDC" transform="translate(118.8671875,14.83203125)"/>
<path d="M0 0 C4.85308929 0.03516731 9.01599057 1.50621855 13.5 3.25 C13.5 3.58 13.5 3.91 13.5 4.25 C11.52 4.25 9.54 4.25 7.5 4.25 C8.4977758 7.24332739 9.2522025 8.19766315 11.5 10.25 C9.41480784 9.9938709 7.3318495 9.71951265 5.25 9.4375 C3.50976562 9.21126953 3.50976562 9.21126953 1.734375 8.98046875 C-1.48394666 8.25362557 -3.08331655 7.43338975 -5.5 5.25 C-4.3852459 0.31323185 -4.3852459 0.31323185 0 0 Z " fill="#749BEC" transform="translate(49.5,16.75)"/>
<path d="M0 0 C0.66 0.33 1.32 0.66 2 1 C1.34 1.66 0.68 2.32 0 3 C1.25541557 5.51083114 2.50063488 5.87125446 5 7 C4.67 7.33 4.34 7.66 4 8 C7.96 8.33 11.92 8.66 16 9 C12 11 12 11 8.5625 10.8125 C4.810792 10.6484363 4.810792 10.6484363 2.0625 13.5 C1.381875 14.325 0.70125 15.15 0 16 C0.33 13.69 0.66 11.38 1 9 C0.01 9.33 -0.98 9.66 -2 10 C-2 8.35 -2 6.7 -2 5 C-2.99 5 -3.98 5 -5 5 C-5 5.66 -5 6.32 -5 7 C-5.66 7 -6.32 7 -7 7 C-7 8.65 -7 10.3 -7 12 C-7.99 11.67 -8.98 11.34 -10 11 C-10.33 11.99 -10.66 12.98 -11 14 C-11.66 14 -12.32 14 -13 14 C-13.33 14.99 -13.66 15.98 -14 17 C-13.02476214 10.17333501 -9.80521276 6.56233015 -4.71875 2.234375 C-3 1 -3 1 0 0 Z " fill="#618DE8" transform="translate(168,34)"/>
<path d="M0 0 C6.19861907 -0.67012098 11.35623611 1.75052827 17 4 C17 4.66 17 5.32 17 6 C17.61875 6.144375 18.2375 6.28875 18.875 6.4375 C21 7 21 7 23 8 C23 8.66 23 9.32 23 10 C23.66 10 24.32 10 25 10 C25 10.66 25 11.32 25 12 C24.01 12 23.02 12 22 12 C22 11.34 22 10.68 22 10 C21.34 10 20.68 10 20 10 C20 10.66 20 11.32 20 12 C19.01 12.495 19.01 12.495 18 13 C19.98 14.98 21.96 16.96 24 19 C23.67 19.66 23.34 20.32 23 21 C21.66079162 19.88200014 20.32877444 18.75538103 19 17.625 C18.2575 16.99851562 17.515 16.37203125 16.75 15.7265625 C16.1725 15.15679687 15.595 14.58703125 15 14 C15 13.34 15 12.68 15 12 C13.68 11.34 12.36 10.68 11 10 C12.98 10 14.96 10 17 10 C17.33 9.34 17.66 8.68 18 8 C16.02 7.34 14.04 6.68 12 6 C12 5.34 12 4.68 12 4 C10.7625 3.896875 9.525 3.79375 8.25 3.6875 C4.7207134 3.26198318 2.62839034 2.51887408 0 0 Z " fill="#85A6ED" transform="translate(55,5)"/>
<path d="M0 0 C0.99 0.33 1.98 0.66 3 1 C3.94850418 3.28343598 4.52146978 5.58076728 5.15625 7.96875 C5.4346875 8.6390625 5.713125 9.309375 6 10 C9.28519475 11.09506492 11.73663415 11.09960608 15.1875 11.0625 C16.27417969 11.05347656 17.36085938 11.04445313 18.48046875 11.03515625 C19.31191406 11.02355469 20.14335937 11.01195313 21 11 C20.66226562 10.38640625 20.32453125 9.7728125 19.9765625 9.140625 C18.81493098 6.5943287 19.07908262 5.57856865 20 3 C20.33 4.32 20.66 5.64 21 7 C21.66 7 22.32 7 23 7 C23.99 9.31 24.98 11.62 26 14 C20.96958972 16.51520514 12.37903224 15.45579313 7 14 C2.33223077 10.34107122 0.96641181 5.67766941 0 0 Z " fill="#4E7DE6" transform="translate(354,71)"/>
<path d="M0 0 C0.33 0 0.66 0 1 0 C1.33 5.28 1.66 10.56 2 16 C2.99 16 3.98 16 5 16 C5.01417969 16.59167969 5.02835938 17.18335937 5.04296875 17.79296875 C5.30901286 22.20067252 5.61982689 24.48625256 8.3125 28.125 C10.77275907 30.26539004 10.77275907 30.26539004 13.3125 29.8125 C13.869375 29.544375 14.42625 29.27625 15 29 C15 29.99 15 30.98 15 32 C14.01 32.495 14.01 32.495 13 33 C10.96855359 32.06553465 8.96466413 31.06775224 7 30 C7 29.34 7 28.68 7 28 C6.34 28 5.68 28 5 28 C-1.03224903 20.27118094 -1.5962427 12.48441873 -1 3 C-0.67 2.01 -0.34 1.02 0 0 Z " fill="#7FA1EB" transform="translate(153,51)"/>
<path d="M0 0 C3.28025747 0.13063292 6.4677255 0.43919566 9.71923828 0.90087891 C10.34033203 2.76025391 10.34033203 2.76025391 10.71923828 4.90087891 C8.78173828 7.15087891 8.78173828 7.15087891 6.71923828 8.90087891 C7.04923828 6.92087891 7.37923828 4.94087891 7.71923828 2.90087891 C0.43637827 2.90148658 0.43637827 2.90148658 -5.84326172 5.96337891 C-6.31763672 6.60275391 -6.79201172 7.24212891 -7.28076172 7.90087891 C-7.94076172 7.90087891 -8.60076172 7.90087891 -9.28076172 7.90087891 C-10.28966512 12.13734657 -10.28966512 12.13734657 -9.34326172 16.27587891 C-8.81732422 17.08025391 -8.81732422 17.08025391 -8.28076172 17.90087891 C-9.27076172 17.90087891 -10.26076172 17.90087891 -11.28076172 17.90087891 C-12.96312643 18.52687508 -14.63315792 19.18840159 -16.28076172 19.90087891 C-10.13866318 0.2819428 -10.13866318 0.2819428 0 0 Z " fill="#668FE9" transform="translate(368.28076171875,14.09912109375)"/>
<path d="M0 0 C3.1357595 2.56562141 3.94449321 5.14075025 5 9 C5.22705078 12.43505859 5.22705078 12.43505859 5.1953125 16.1484375 C5.1924826 16.80582916 5.18965271 17.46322083 5.18673706 18.14053345 C5.17563447 20.21888233 5.15054986 22.29678366 5.125 24.375 C5.11495731 25.79296248 5.10583373 27.21093179 5.09765625 28.62890625 C5.07572805 32.08608037 5.04126818 35.54299642 5 39 C4.01 39.495 4.01 39.495 3 40 C3 29.44 3 18.88 3 8 C2.34 8 1.68 8 1 8 C0.67 5.36 0.34 2.72 0 0 Z " fill="#7B9CE4" transform="translate(63,36)"/>
<path d="M0 0 C3.84682944 3.33391884 4.23755694 4.71267083 6 10 C6 14.62 6 19.24 6 24 C-4.56 24 -15.12 24 -26 24 C-26.33 25.32 -26.66 26.64 -27 28 C-27 26.35 -27 24.7 -27 23 C-16.44 23 -5.88 23 5 23 C4.3252626 14.96981121 4.3252626 14.96981121 2.5 7.5625 C2.2421875 6.75941406 1.984375 5.95632812 1.71875 5.12890625 C1.4815625 4.42636719 1.244375 3.72382812 1 3 C0.67 2.01 0.34 1.02 0 0 Z " fill="#CEDAF5" transform="translate(194,40)"/>
<path d="M0 0 C0.99 0.33 1.98 0.66 3 1 C3.07347656 2.06541016 3.07347656 2.06541016 3.1484375 3.15234375 C3.22320312 4.07144531 3.29796875 4.99054687 3.375 5.9375 C3.44460937 6.85402344 3.51421875 7.77054688 3.5859375 8.71484375 C3.72257812 9.46894531 3.85921875 10.22304688 4 11 C4.66 11.33 5.32 11.66 6 12 C6.33 8.04 6.66 4.08 7 0 C7.33 0 7.66 0 8 0 C8.24878997 2.43694274 8.47463404 4.87238389 8.6875 7.3125 C8.79674805 8.34793945 8.79674805 8.34793945 8.90820312 9.40429688 C9.33135078 14.55674183 9.33135078 14.55674183 7.51953125 16.98046875 C7.01808594 17.31691406 6.51664062 17.65335938 6 18 C4.0625 17.5 4.0625 17.5 2 16 C1.47871369 13.25139947 1.18331416 10.76900862 1 8 C0.82189807 6.49885512 0.63484258 4.99873685 0.4375 3.5 C0.293125 2.345 0.14875 1.19 0 0 Z " fill="#688EE6" transform="translate(83,34)"/>
<path d="M0 0 C1.32 0.33 2.64 0.66 4 1 C4 1.99 4 2.98 4 4 C6.31 4.33 8.62 4.66 11 5 C11 5.66 11 6.32 11 7 C16.94 7.99 16.94 7.99 23 9 C23 8.01 23 7.02 23 6 C25.64 6 28.28 6 31 6 C28.24913316 9.01285416 26.25424921 9.91186357 22.109375 10.203125 C15.60471506 10.2938877 10.72719033 10.19657134 5 7 C5 6.34 5 5.68 5 5 C4.34 5 3.68 5 3 5 C3 4.34 3 3.68 3 3 C2.34 3 1.68 3 1 3 C0.67 2.01 0.34 1.02 0 0 Z " fill="#8FAEEB" transform="translate(265,76)"/>
<path d="M0 0 C1.43718366 2.87436732 1.54780964 5.83466746 2 9 C2.33 9.66 2.66 10.32 3 11 C-0.21451269 12.60725635 -3.43612536 12.05748185 -7 12 C-5.80100302 8.9168649 -4.52299523 5.93720508 -3 3 C-2.34 3 -1.68 3 -1 3 C-0.67 2.01 -0.34 1.02 0 0 Z " fill="#3D7AEE" transform="translate(325,71)"/>
<path d="M0 0 C0.33 0.66 0.66 1.32 1 2 C3.02463255 2.65213292 3.02463255 2.65213292 5 3 C3.69919084 5.60161833 2.77735101 5.65118797 0.0625 6.5625 C-8.34456342 9.17388579 -15.53820524 9.47313325 -24 7 C-24 6.67 -24 6.34 -24 6 C-22.13794922 6.01740234 -22.13794922 6.01740234 -20.23828125 6.03515625 C-18.59635568 6.04453868 -16.95442847 6.0536384 -15.3125 6.0625 C-14.49587891 6.07087891 -13.67925781 6.07925781 -12.83789062 6.08789062 C-8.75500916 6.10442051 -4.98348293 6.03035098 -1 5 C-0.67 3.35 -0.34 1.7 0 0 Z " fill="#779CEA" transform="translate(246,78)"/>
<path d="M0 0 C0.66 0.33 1.32 0.66 2 1 C3.24024621 5.96098482 3.10151176 10.92441192 3 16 C1.02 16.99 1.02 16.99 -1 18 C-2 17 -2 17 -2.1875 14.0625 C-2 11 -2 11 0 9 C0 8.34 0 7.68 0 7 C0 4.66666667 0 2.33333333 0 0 Z " fill="#5885EA" transform="translate(76,34)"/>
<path d="M0 0 C2.1875 0.5625 2.1875 0.5625 4 2 C5.25 4.125 5.25 4.125 6 6 C5.21625 5.814375 4.4325 5.62875 3.625 5.4375 C1.02910225 4.74037734 1.02910225 4.74037734 -1 6 C-3.88912732 5.91061582 -6.74393255 5.765952 -9.625 5.5625 C-10.42679688 5.51029297 -11.22859375 5.45808594 -12.0546875 5.40429688 C-14.03679103 5.27451629 -16.01844499 5.13790265 -18 5 C-18 4.67 -18 4.34 -18 4 C-17.11957031 3.96261719 -16.23914063 3.92523438 -15.33203125 3.88671875 C-13.58986328 3.78810547 -13.58986328 3.78810547 -11.8125 3.6875 C-10.66394531 3.62949219 -9.51539063 3.57148437 -8.33203125 3.51171875 C-4.83592581 2.97480221 -2.93460537 1.88727271 0 0 Z " fill="#8BABEE" transform="translate(191,70)"/>
<path d="M0 0 C3.67157953 3.3738839 6.12343314 6.35796619 8 11 C8 12.32 8 13.64 8 15 C7.34 15 6.68 15 6 15 C6 13.68 6 12.36 6 11 C5.34 11 4.68 11 4 11 C4 10.01 4 9.02 4 8 C3.34 8 2.68 8 2 8 C1.67 10.31 1.34 12.62 1 15 C-1 12 -1 12 -0.75 9.375 C-0.5025 8.59125 -0.255 7.8075 0 7 C0.66 6.67 1.32 6.34 2 6 C1.34 4.02 0.68 2.04 0 0 Z " fill="#7D9FEB" transform="translate(82,19)"/>
<path d="M0 0 C0.66 0 1.32 0 2 0 C0.87103877 5.08032552 -0.96303267 9.74824574 -4 14 C-4.99 14 -5.98 14 -7 14 C-6.1875 10.5625 -6.1875 10.5625 -5 7 C-4.01 6.67 -3.02 6.34 -2 6 C-1.855625 5.195625 -1.71125 4.39125 -1.5625 3.5625 C-1 1 -1 1 0 0 Z " fill="#0657F6" transform="translate(334,59)"/>
<path d="M0 0 C0 0.66 0 1.32 0 2 C-4.29 2 -8.58 2 -13 2 C-12.67 3.32 -12.34 4.64 -12 6 C-11.01 6.33 -10.02 6.66 -9 7 C-9 7.99 -9 8.98 -9 10 C-8.34 10 -7.68 10 -7 10 C-7.33 11.32 -7.66 12.64 -8 14 C-9.17520646 12.40207898 -10.33991247 10.79643092 -11.5 9.1875 C-12.1496875 8.29417969 -12.799375 7.40085937 -13.46875 6.48046875 C-15 4 -15 4 -15 1 C-9.92928099 0.28832014 -5.11791642 -0.10662326 0 0 Z " fill="#839EE4" transform="translate(333,15)"/>
<path d="M0 0 C0 1.65 0 3.3 0 5 C-1.4370809 5.05422947 -2.87475462 5.09289723 -4.3125 5.125 C-5.11300781 5.14820312 -5.91351563 5.17140625 -6.73828125 5.1953125 C-9 5 -9 5 -12 3 C-4.71428571 -0.42857143 -4.71428571 -0.42857143 0 0 Z " fill="#0455F1" transform="translate(288,80)"/>
<path d="M0 0 C2.56578798 1.84416011 4.22124494 3.83289438 6 6.4375 C6 7.4275 6 8.4175 6 9.4375 C5.01 9.4375 4.02 9.4375 3 9.4375 C2.67 8.1175 2.34 6.7975 2 5.4375 C-1.3 4.7775 -4.6 4.1175 -8 3.4375 C-3.56097561 -1.00152439 -3.56097561 -1.00152439 0 0 Z " fill="#9AAFE8" transform="translate(248,70.5625)"/>
<path d="M0 0 C1.65 0 3.3 0 5 0 C4.67 6.27 4.34 12.54 4 19 C3.01 19.33 2.02 19.66 1 20 C1.09539062 19.05898437 1.19078125 18.11796875 1.2890625 17.1484375 C1.39992188 15.90320313 1.51078125 14.65796875 1.625 13.375 C1.74101562 12.14523438 1.85703125 10.91546875 1.9765625 9.6484375 C2.00034163 5.94681886 1.37441976 3.40982003 0 0 Z " fill="#608DE5" transform="translate(296,49)"/>
<path d="M0 0 C0.99 0.33 1.98 0.66 3 1 C2.57811541 2.8161982 2.13700835 4.62794073 1.6875 6.4375 C1.44386719 7.44683594 1.20023437 8.45617187 0.94921875 9.49609375 C0.63597656 10.32238281 0.32273437 11.14867187 0 12 C-0.99 12.33 -1.98 12.66 -3 13 C-3.495 14.2375 -3.495 14.2375 -4 15.5 C-4.495 16.7375 -4.495 16.7375 -5 18 C-5.99 18.33 -6.98 18.66 -8 19 C-6.37277868 14.51329267 -4.05292255 11.10062203 -1.2421875 7.28125 C0.19481068 4.64223448 0.23973213 2.96017062 0 0 Z " fill="#90AEEC" transform="translate(337,47)"/>
<path d="M0 0 C2.475 0.495 2.475 0.495 5 1 C4.67 1.66 4.34 2.32 4 3 C7.96 3.33 11.92 3.66 16 4 C12 6 12 6 8.5625 5.8125 C4.810792 5.6484363 4.810792 5.6484363 2.0625 8.5 C1.381875 9.325 0.70125 10.15 0 11 C0.185625 9.9275 0.37125 8.855 0.5625 7.75 C0.9304568 4.59608454 1.04465343 2.90181508 0 0 Z " fill="#6594F2" transform="translate(168,39)"/>
<path d="M0 0 C1.69141656 0.08963062 3.37959602 0.24577676 5.0625 0.4375 C6.44115234 0.59025391 6.44115234 0.59025391 7.84765625 0.74609375 C8.55792969 0.82988281 9.26820312 0.91367187 10 1 C9.01 1.66 8.02 2.32 7 3 C7.33 3.66 7.66 4.32 8 5 C5.36 5 2.72 5 0 5 C-0.5625 3.0625 -0.5625 3.0625 -1 1 C-0.67 0.67 -0.34 0.34 0 0 Z " fill="#3570EE" transform="translate(45,18)"/>
<path d="M0 0 C0.66 0.33 1.32 0.66 2 1 C2 1.66 2 2.32 2 3 C3.32 2.67 4.64 2.34 6 2 C6.66 3.32 7.32 4.64 8 6 C4.37 6 0.74 6 -3 6 C-3.33 5.34 -3.66 4.68 -4 4 C-2.68 3.34 -1.36 2.68 0 2 C0 1.34 0 0.68 0 0 Z " fill="#0258FC" transform="translate(368,77)"/>
<path d="M0 0 C4.29 0 8.58 0 13 0 C13 0.33 13 0.66 13 1 C11.2984375 1.4640625 11.2984375 1.4640625 9.5625 1.9375 C6.21224901 2.62924531 6.21224901 2.62924531 5 4 C5.66 4.33 6.32 4.66 7 5 C6.67 5.99 6.34 6.98 6 8 C5.34 8 4.68 8 4 8 C3.67 7.01 3.34 6.02 3 5 C2.484375 4.484375 1.96875 3.96875 1.4375 3.4375 C0.963125 2.963125 0.48875 2.48875 0 2 C0 1.34 0 0.68 0 0 Z " fill="#0653F3" transform="translate(320,17)"/>
<path d="M0 0 C6.19861907 -0.67012098 11.35623611 1.75052827 17 4 C16.67 4.66 16.34 5.32 16 6 C14.68 6 13.36 6 12 6 C12 5.34 12 4.68 12 4 C10.7625 3.896875 9.525 3.79375 8.25 3.6875 C4.7207134 3.26198318 2.62839034 2.51887408 0 0 Z " fill="#799DE9" transform="translate(55,5)"/>
<path d="M0 0 C1.98 0 3.96 0 6 0 C6 0.99 6 1.98 6 3 C7.32 3.33 8.64 3.66 10 4 C8.68 4.99 7.36 5.98 6 7 C3 5.1875 3 5.1875 0 3 C0 2.01 0 1.02 0 0 Z " fill="#0855EF" transform="translate(57,21)"/>
<path d="M0 0 C0.66 0 1.32 0 2 0 C2 0.66 2 1.32 2 2 C3.32 2.33 4.64 2.66 6 3 C5.67 3.99 5.34 4.98 5 6 C4.34 5.67 3.68 5.34 3 5 C2.67 5.99 2.34 6.98 2 8 C0.02 6.35 -1.96 4.7 -4 3 C-2.68 2.67 -1.36 2.34 0 2 C0 1.34 0 0.68 0 0 Z " fill="#0C57EC" transform="translate(75,15)"/>
<path d="M0 0 C0.33 0.99 0.66 1.98 1 3 C1.825 3.309375 2.65 3.61875 3.5 3.9375 C4.325 4.288125 5.15 4.63875 6 5 C6.8125 7.125 6.8125 7.125 7 9 C6.01 9 5.02 9 4 9 C3.34 7.68 2.68 6.36 2 5 C1.34 6.32 0.68 7.64 0 9 C-0.66 9 -1.32 9 -2 9 C-2.33 8.01 -2.66 7.02 -3 6 C-2.34 5.67 -1.68 5.34 -1 5 C-0.34444881 2.47266765 -0.34444881 2.47266765 0 0 Z " fill="#3071EA" transform="translate(360,56)"/>
<path d="M0 0 C1.04473978 3.13421934 1.0093131 5.10671464 0.875 8.375 C0.81607247 12.83581417 1.19793344 15.38066402 4 19 C4 19.66 4 20.32 4 21 C2.68 20.67 1.36 20.34 0 20 C-0.93339313 16.05159889 -1.13424241 12.36529711 -1.125 8.3125 C-1.12757813 7.17425781 -1.13015625 6.03601562 -1.1328125 4.86328125 C-1 2 -1 2 0 0 Z " fill="#A9BEF0" transform="translate(277,51)"/>
<path d="M0 0 C0.66 0.33 1.32 0.66 2 1 C1.34 1.66 0.68 2.32 0 3 C-0.40047444 5.32275177 -0.7397104 7.65739357 -1 10 C-1.33 10 -1.66 10 -2 10 C-2 8.35 -2 6.7 -2 5 C-3.98 5.33 -5.96 5.66 -8 6 C-3.375 1.125 -3.375 1.125 0 0 Z " fill="#568AED" transform="translate(168,34)"/>
<path d="M0 0 C0.99 0 1.98 0 3 0 C3.144375 1.0725 3.28875 2.145 3.4375 3.25 C3.83749442 5.91662949 4.27591924 8.41399729 5 11 C3.66666667 11 2.33333333 11 1 11 C0.67 7.37 0.34 3.74 0 0 Z " fill="#0455EE" transform="translate(73,34)"/>
<path d="M0 0 C1.65 0.33 3.3 0.66 5 1 C4.07038578 2.15224028 3.1309875 3.29659176 2.1875 4.4375 C1.40439453 5.39462891 1.40439453 5.39462891 0.60546875 6.37109375 C-1 8 -1 8 -4 9 C-4.66 8.34 -5.32 7.68 -6 7 C-4.35 6.67 -2.7 6.34 -1 6 C-1.33 5.01 -1.66 4.02 -2 3 C-1.34 2.67 -0.68 2.34 0 2 C0 1.34 0 0.68 0 0 Z " fill="#668EE7" transform="translate(19,88)"/>
<path d="M0 0 C1.65 0 3.3 0 5 0 C5 2.31 5 4.62 5 7 C3.35 6.67 1.7 6.34 0 6 C0 4.02 0 2.04 0 0 Z " fill="#0459F8" transform="translate(289,76)"/>
<path d="M0 0 C0.33 0 0.66 0 1 0 C1 1.65 1 3.3 1 5 C1.99 5.33 2.98 5.66 4 6 C5.6875 7.5625 5.6875 7.5625 7 9 C6.67 9.66 6.34 10.32 6 11 C3.69 11 1.38 11 -1 11 C-1 10.34 -1 9.68 -1 9 C-0.01 9 0.98 9 2 9 C1.34 8.34 0.68 7.68 0 7 C-0.125 3.375 -0.125 3.375 0 0 Z " fill="#5888ED" transform="translate(166,63)"/>
<path d="M0 0 C1.32 0.33 2.64 0.66 4 1 C4 1.99 4 2.98 4 4 C6.31 4.33 8.62 4.66 11 5 C11 5.99 11 6.98 11 8 C8.03 7.505 8.03 7.505 5 7 C5 6.34 5 5.68 5 5 C4.34 5 3.68 5 3 5 C3 4.34 3 3.68 3 3 C2.34 3 1.68 3 1 3 C0.67 2.01 0.34 1.02 0 0 Z " fill="#6A8FE4" transform="translate(265,76)"/>
<path d="M0 0 C4.29 0 8.58 0 13 0 C13.33 1.32 13.66 2.64 14 4 C12.0625 6.25 12.0625 6.25 10 8 C10.33 6.02 10.66 4.04 11 2 C7.37 2 3.74 2 0 2 C0 1.34 0 0.68 0 0 Z " fill="#8CA3E3" transform="translate(365,15)"/>
<path d="M0 0 C0.99 0.33 1.98 0.66 3 1 C3.87890625 3.03125 3.87890625 3.03125 4.5625 5.5 C5.20384717 7.91495405 5.20384717 7.91495405 6 10 C6.66 10.33 7.32 10.66 8 11 C7.01 11 6.02 11 5 11 C4.16151196 9.54462432 3.32936066 8.08559627 2.5 6.625 C1.80390625 5.40683594 1.80390625 5.40683594 1.09375 4.1640625 C0 2 0 2 0 0 Z " fill="#7E9EE5" transform="translate(354,71)"/>
<path d="M0 0 C0 1.65 0 3.3 0 5 C-0.66 5 -1.32 5 -2 5 C-2 5.99 -2 6.98 -2 8 C-2.66 8 -3.32 8 -4 8 C-5.625 6 -5.625 6 -7 4 C-1.125 0 -1.125 0 0 0 Z " fill="#3A75EF" transform="translate(299,68)"/>
<path d="M0 0 C-0.75 5.75 -0.75 5.75 -3 8 C-3.99 7.67 -4.98 7.34 -6 7 C-5.39816251 4.97954558 -4.72693904 2.97888961 -4 1 C-2 0 -2 0 0 0 Z " fill="#0458F5" transform="translate(363,21)"/>
<path d="M0 0 C2 3 2 3 2 5 C0.125 7.125 0.125 7.125 -2 9 C-2.66 9 -3.32 9 -4 9 C-4.33 9.66 -4.66 10.32 -5 11 C-4.46884894 6.48521602 -2.63379708 3.65333143 0 0 Z " fill="#6D95EA" transform="translate(213,40)"/>
<path d="M0 0 C2 0 2 0 3.625 1.5625 C5.45512039 4.80680433 5.21131282 7.33724439 5 11 C3 9 3 9 2 6 C1.01 5.34 0.02 4.68 -1 4 C-0.67 2.68 -0.34 1.36 0 0 Z " fill="#5F89E9" transform="translate(247,39)"/>
<path d="M0 0 C1.5625 1.125 1.5625 1.125 3 3 C2.6875 6.1875 2.6875 6.1875 2 9 C1.01 9 0.02 9 -1 9 C-2.0326802 6.21176345 -2.04509293 5.1322726 -1.0625 2.25 C-0.711875 1.5075 -0.36125 0.765 0 0 Z " fill="#0259FB" transform="translate(361,60)"/>
<path d="M0 0 C1.32 1.32 2.64 2.64 4 4 C3.01 4 2.02 4 1 4 C1 4.66 1 5.32 1 6 C1.99 6.33 2.98 6.66 4 7 C2.02 7.99 2.02 7.99 0 9 C-0.66 6.69 -1.32 4.38 -2 2 C-1.34 1.34 -0.68 0.68 0 0 Z " fill="#0D5CF0" transform="translate(346,36)"/>
<path d="M0 0 C0.66 0.99 1.32 1.98 2 3 C-1.3282731 4.66413655 -4.99733973 3.81867406 -8.625 3.5625 C-9.42679687 3.51029297 -10.22859375 3.45808594 -11.0546875 3.40429688 C-13.03679103 3.27451629 -15.01844499 3.13790265 -17 3 C-16.67 2.34 -16.34 1.68 -16 1 C-10.72 1.33 -5.44 1.66 0 2 C0 1.34 0 0.68 0 0 Z " fill="#8DA7DD" transform="translate(378,82)"/>
<path d="M0 0 C1.65 0.33 3.3 0.66 5 1 C4.34 2.65 3.68 4.3 3 6 C2.01 6 1.02 6 0 6 C-1.125 2.25 -1.125 2.25 0 0 Z " fill="#1C64E8" transform="translate(294,76)"/>
<path d="M0 0 C3.875 1.75 3.875 1.75 5 4 C6.32 3.67 7.64 3.34 9 3 C9 3.99 9 4.98 9 6 C8.01 6.495 8.01 6.495 7 7 C3.9375 5.8125 3.9375 5.8125 1 4 C0.125 1.8125 0.125 1.8125 0 0 Z " fill="#6993EA" transform="translate(159,77)"/>
<path d="M0 0 C3.08089673 2.77280706 4.68775452 5.06326356 6 9 C5.01 9 4.02 9 3 9 C0.50022457 5.66696609 0 4.26696398 0 0 Z " fill="#7EA0E8" transform="translate(367,65)"/>
<path d="M0 0 C1.25 2.5625 1.25 2.5625 2 5 C1.113125 4.525625 0.22625 4.05125 -0.6875 3.5625 C-3.57042756 2.20262851 -5.87610623 1.45939614 -9 1 C-9 0.67 -9 0.34 -9 0 C-3.07058824 -1.48235294 -3.07058824 -1.48235294 0 0 Z " fill="#7B9DE8" transform="translate(294,44)"/>
<path d="M0 0 C2.64 0.33 5.28 0.66 8 1 C8.33 2.32 8.66 3.64 9 5 C8.34 5 7.68 5 7 5 C6.67 4.34 6.34 3.68 6 3 C5.01 3.495 5.01 3.495 4 4 C4 3.34 4 2.68 4 2 C2.68 2.33 1.36 2.66 0 3 C0 2.01 0 1.02 0 0 Z " fill="#0259FB" transform="translate(236,36)"/>
<path d="M0 0 C3.82669043 3.42388092 5.72278474 6.00724943 7 11 C6.01 10.67 5.02 10.34 4 10 C2.41927041 6.71694623 1.15154357 3.45463072 0 0 Z " fill="#99B1EB" transform="translate(334,15)"/>
<path d="M0 0 C0.66 0.33 1.32 0.66 2 1 C2 2.32 2 3.64 2 5 C-0.64 4.67 -3.28 4.34 -6 4 C-4.02610343 2.02610343 -2.56269497 1.04109483 0 0 Z " fill="#7799E8" transform="translate(246,70)"/>
<path d="M0 0 C1.98 0.99 1.98 0.99 4 2 C4 3.98 4 5.96 4 8 C3.01 7.67 2.02 7.34 1 7 C0.67 4.69 0.34 2.38 0 0 Z " fill="#4879E5" transform="translate(208,67)"/>
<path d="M0 0 C0.66 0 1.32 0 2 0 C2.33 3.63 2.66 7.26 3 11 C-0.317124 6.577168 -0.30466674 5.28089024 0 0 Z " fill="#5D87E3" transform="translate(262,65)"/>
<path d="M0 0 C2 1.8125 2 1.8125 4 4 C4 4.99 4 5.98 4 7 C4.66 7 5.32 7 6 7 C5.67 7.99 5.34 8.98 5 10 C5 9.34 5 8.68 5 8 C3.68 7.67 2.36 7.34 1 7 C0.67 4.69 0.34 2.38 0 0 Z " fill="#8EACEC" transform="translate(341,26)"/>
<path d="M0 0 C1.32 0.33 2.64 0.66 4 1 C2.35 2.98 0.7 4.96 -1 7 C-1.66 6.67 -2.32 6.34 -3 6 C-2.34 5.34 -1.68 4.68 -1 4 C-0.3574765 1.93125966 -0.3574765 1.93125966 0 0 Z " fill="#799EED" transform="translate(27,82)"/>
<path d="M0 0 C2.52259061 1.97420135 2.9929808 2.96745642 3.6875 6.1875 C3.790625 7.115625 3.89375 8.04375 4 9 C3.01 8.67 2.02 8.34 1 8 C0.67 5.36 0.34 2.72 0 0 Z " fill="#668FE7" transform="translate(63,36)"/>
<path d="M0 0 C0.99 0 1.98 0 3 0 C3.33 1.65 3.66 3.3 4 5 C2.35 4.67 0.7 4.34 -1 4 C-0.67 2.68 -0.34 1.36 0 0 Z " fill="#1867F1" transform="translate(248,76)"/>
<path d="M0 0 C0.66 0 1.32 0 2 0 C1.38722388 2.96175123 0.74627478 4.38058783 -1 7 C-1.99 6.67 -2.98 6.34 -4 6 C-3.34 6 -2.68 6 -2 6 C-1.855625 5.195625 -1.71125 4.39125 -1.5625 3.5625 C-1 1 -1 1 0 0 Z " fill="#0853E9" transform="translate(334,59)"/>
<path d="M0 0 C2.875 -0.1875 2.875 -0.1875 6 0 C6.66 0.99 7.32 1.98 8 3 C6 4 6 4 2.875 3.0625 C1.92625 2.711875 0.9775 2.36125 0 2 C0 1.34 0 0.68 0 0 Z " fill="#5F88E5" transform="translate(184,35)"/>
</svg>
