<?xml version="1.0" encoding="UTF-8"?>
<svg version="1.1" xmlns="http://www.w3.org/2000/svg" width="202" height="201">
<path d="M0 0 C1.20210114 -0.0127597 2.40420227 -0.02551941 3.64273071 -0.03866577 C5.57407364 -0.04200424 5.57407364 -0.04200424 7.54443359 -0.04541016 C8.89716732 -0.05184919 10.24989969 -0.05857835 11.60263062 -0.06558228 C14.43531514 -0.07752908 17.26787801 -0.08126612 20.10058594 -0.08007812 C23.69797896 -0.07987582 27.29457411 -0.10709637 30.89177895 -0.14162254 C33.68711797 -0.16407256 36.48227103 -0.1679101 39.27769089 -0.16685867 C41.23829784 -0.1703113 43.19884673 -0.19186854 45.15933228 -0.21395874 C57.48474999 -0.15184521 67.83806743 2.52452853 76.81787109 11.29052734 C89.48710749 25.40450123 88.15939158 44.47589968 88.07861328 62.34033203 C88.06780345 65.1833183 88.07862548 68.02568395 88.09130859 70.86865234 C88.11219243 95.7433339 88.11219243 95.7433339 82.38037109 102.85693359 C73.13639688 111.33827994 59.45705825 110.42581393 47.77880859 110.36083984 C45.71369597 110.36941667 43.64859049 110.37988979 41.58349609 110.39208984 C38.37948762 110.40880812 35.17711731 110.41540311 31.97314453 110.39013672 C28.84487161 110.36909667 25.71944629 110.3924452 22.59130859 110.42333984 C21.1706459 110.39725143 21.1706459 110.39725143 19.72128296 110.37063599 C9.69307393 110.55090109 4.21126655 116.68549614 -2.43212891 123.52880859 C-7.14941327 128.27768191 -12.25158689 133.1275716 -18.18212891 136.29052734 C-20.93212891 136.29052734 -20.93212891 136.29052734 -23.18212891 135.29052734 C-25.01041586 132.39718963 -25.43282368 130.15966534 -25.43609619 126.76997375 C-25.44173584 125.8687529 -25.44737549 124.96753204 -25.45318604 124.03900146 C-25.44913757 123.05764221 -25.44508911 122.07628296 -25.44091797 121.06518555 C-25.44442261 120.02567245 -25.44792725 118.98615936 -25.45153809 117.91514587 C-25.46034994 114.4737991 -25.45450592 111.03265753 -25.44775391 107.59130859 C-25.44910122 105.1971991 -25.45104231 102.80308988 -25.45355225 100.40898132 C-25.4565032 95.38615316 -25.45220862 90.36339608 -25.44287109 85.34057617 C-25.4315074 78.91593127 -25.43801671 72.49145405 -25.45001602 66.06681538 C-25.45726163 61.11930593 -25.45493375 56.17183585 -25.44976044 51.22432518 C-25.44842981 48.85654874 -25.45005101 46.48876868 -25.45471954 44.12099648 C-25.45982568 40.80151615 -25.45201574 37.48230239 -25.44091797 34.1628418 C-25.44496643 33.1916037 -25.44901489 32.2203656 -25.45318604 31.21969604 C-25.39590793 21.92340918 -24.23334173 13.64200077 -18.18212891 6.29052734 C-12.6070241 1.7829958 -7.11619612 0.05157404 0 0 Z " fill="#055AF7" transform="translate(46.18212890625,58.70947265625)"/>
<path d="M0 0 C22.70138993 4.76482732 43.01198188 16.475678 55.86328125 36.0546875 C57.00286867 37.92085751 58.12858101 39.79559213 59.23828125 41.6796875 C59.70363281 42.44796875 60.16898437 43.21625 60.6484375 44.0078125 C66.54175344 54.60496776 68.7756931 67.67167003 69.23828125 79.6796875 C69.28984375 80.51371094 69.34140625 81.34773438 69.39453125 82.20703125 C69.53059127 85.70490763 69.5708995 88.01445099 67.98828125 91.1796875 C65.93638985 92.93845156 64.95312403 93.59983918 62.23828125 93.6796875 C59.99471831 92.53181809 58.02870455 91.4701108 56.23828125 89.6796875 C56.14254701 87.90754036 56.05365696 86.13475224 55.99975586 84.36083984 C55.32515295 63.90011121 49.15599293 46.1891257 34.4453125 31.55859375 C20.6672102 18.70830978 1.61109729 12.30719482 -16.9753418 12.23339844 C-20.43235058 12.15136636 -22.42855654 11.92033353 -25.265625 9.87109375 C-26.76171875 7.6796875 -26.76171875 7.6796875 -26.69921875 4.0546875 C-24.01092508 -5.62316971 -7.67314467 -1.34165164 0 0 Z " fill="#135DF1" transform="translate(113.76171875,9.3203125)"/>
<path d="M0 0 C13.58877751 10.15120901 22.8062942 22.53338395 25.61328125 39.53125 C25.86916303 41.59060624 26.10168538 43.65313037 26.30078125 45.71875 C26.37296875 46.44449219 26.44515625 47.17023438 26.51953125 47.91796875 C26.67022954 50.81263164 26.22525689 52.92755263 25.23828125 55.65625 C23.30078125 57.71875 23.30078125 57.71875 19.61328125 58.03125 C18.52015625 57.928125 17.42703125 57.825 16.30078125 57.71875 C14.24332567 54.26425668 13.89508883 51.18847675 13.48828125 47.21875 C11.53224837 32.63190012 4.95410364 22.29502926 -5.98828125 12.765625 C-14.28031971 6.50477752 -23.73726562 3.9945309 -33.94921875 3.40625 C-37.67028261 3.07535977 -38.68197068 2.73092511 -41.88671875 0.46875 C-43.69921875 -2.28125 -43.69921875 -2.28125 -43.63671875 -4.96875 C-42.69921875 -7.28125 -42.69921875 -7.28125 -40.69921875 -9.28125 C-28.59043641 -13.62112332 -10.15560219 -6.69074968 0 0 Z " fill="#0658F4" transform="translate(130.69921875,44.28125)"/>
<path d="M0 0 C0.66 0 1.32 0 2 0 C6.40266702 12.28899776 9.11076777 25.89294032 8 39 C6.64977893 41.70044213 5.78967432 42.60516284 3.125 43.9375 C0.0741453 44.02723102 -1.55062354 42.72118346 -4 41 C-5.71575224 39.28424776 -5.16760411 37.07390889 -5.24047852 34.77905273 C-5.57418192 24.50890625 -7.4999158 14.94219531 -10 5 C-9.34 5 -8.68 5 -8 5 C-6.35 9.95 -4.7 14.9 -3 20 C-1.35 18.68 0.3 17.36 2 16 C2.33 16.33 2.66 16.66 3 17 C2.67 15.35 2.34 13.7 2 12 C1.01 12 0.02 12 -1 12 C-0.67 8.04 -0.34 4.08 0 0 Z " fill="#1E60E9" transform="translate(175,59)"/>
<path d="M0 0 C5.27381689 1.39671863 8.77550699 3.75947635 12.9375 7.125 C13.86381226 7.8675 13.86381226 7.8675 14.80883789 8.625 C23.06079066 15.36004167 33.017011 25.11898342 35 36 C33.68 36 32.36 36 31 36 C30.32591692 34.73308493 29.66099503 33.46129251 29 32.1875 C28.62875 31.47980469 28.2575 30.77210937 27.875 30.04296875 C27 28 27 28 27 25 C25.35 25.33 23.7 25.66 22 26 C22 24.68 22 23.36 22 22 C21.34 22 20.68 22 20 22 C19.505 19.525 19.505 19.525 19 17 C16.69 16.67 14.38 16.34 12 16 C12.33 14.35 12.66 12.7 13 11 C11.68 11 10.36 11 9 11 C9.33 11.7425 9.66 12.485 10 13.25 C11 16 11 16 11 20 C12.40786891 21.89202528 12.40786891 21.89202528 14.3125 23.5625 C15.23482422 24.43068359 15.23482422 24.43068359 16.17578125 25.31640625 C16.77777344 25.87199219 17.37976563 26.42757812 18 27 C19.00452482 27.99545462 20.0061348 28.99390261 21 30 C20.34 31.32 19.68 32.64 19 34 C18.52691406 33.3709375 18.05382812 32.741875 17.56640625 32.09375 C11.14296897 23.77959336 4.42167046 16.81106577 -5 12 C-2.92446352 11.4465236 -1.15634036 11 1 11 C0.67 9.02 0.34 7.04 0 5 C0.66 5 1.32 5 2 5 C1.34 3.35 0.68 1.7 0 0 Z " fill="#155BEC" transform="translate(139,19)"/>
<path d="M0 0 C12.524689 1.87870335 22.3027725 9.04750796 31 18 C31.33 18.66 31.66 19.32 32 20 C30.68 20.33 29.36 20.66 28 21 C28 20.01 28 19.02 28 18 C27.01 18 26.02 18 25 18 C25 18.66 25 19.32 25 20 C23.35 20.33 21.7 20.66 20 21 C22.06007659 24.60513403 24.3513141 27.80331012 27 31 C26.34 31.66 25.68 32.32 25 33 C24.443125 32.34773438 23.88625 31.69546875 23.3125 31.0234375 C18.60352156 25.63038449 13.95445031 20.99126642 8 17 C8.99 16.67 9.98 16.34 11 16 C11 15.34 11 14.68 11 14 C11.99 14 12.98 14 14 14 C15.05270463 11.36893239 15.05270463 11.36893239 15 10 C13.35 9.67 11.7 9.34 10 9 C10 8.01 10 7.02 10 6 C9.34 6 8.68 6 8 6 C8 5.34 8 4.68 8 4 C5.36 3.34 2.72 2.68 0 2 C0 1.34 0 0.68 0 0 Z " fill="#135EF0" transform="translate(112,37)"/>
<path d="M0 0 C0.99 0 1.98 0 3 0 C3 0.99 3 1.98 3 3 C4.32 2.67 5.64 2.34 7 2 C7.625 4.3125 7.625 4.3125 8 7 C7.01 8.485 7.01 8.485 6 10 C6.66 10 7.32 10 8 10 C8.33 9.34 8.66 8.68 9 8 C9.99 10.97 10.98 13.94 12 17 C12.66 17 13.32 17 14 17 C13.875 18.75 13.875 18.75 13 21 C9.9375 23.25 9.9375 23.25 7 25 C6 20.25 6 20.25 6 18 C5.34 18 4.68 18 4 18 C2.23688046 15.93025097 0.87365473 13.78416016 -0.5 11.4375 C-1.86103421 8.99834326 -1.86103421 8.99834326 -3.6875 7.375 C-5 6 -5 6 -5 3 C-3.35 2.67 -1.7 2.34 0 2 C0 1.34 0 0.68 0 0 Z " fill="#0358F7" transform="translate(137,55)"/>
<path d="M0 0 C0 0.66 0 1.32 0 2 C1.45833358 3.62514468 1.45833358 3.62514468 3 5 C1.68 5.33 0.36 5.66 -1 6 C-0.34 6.66 0.32 7.32 1 8 C-1.83384108 8.82514784 -4.16935251 9.07936233 -7.109375 8.87890625 C-7.86347656 8.83056641 -8.61757812 8.78222656 -9.39453125 8.73242188 C-10.17183594 8.67634766 -10.94914062 8.62027344 -11.75 8.5625 C-12.54277344 8.51029297 -13.33554688 8.45808594 -14.15234375 8.40429688 C-16.10193997 8.27510676 -18.05102886 8.13830035 -20 8 C-20.33 5.69 -20.66 3.38 -21 1 C-13.96094956 0.06145994 -7.09727428 -0.10808032 0 0 Z " fill="#0356F6" transform="translate(112,37)"/>
<path d="M0 0 C7.48526591 -0.09331455 14.97047034 -0.16407292 22.4561882 -0.20724869 C25.93340578 -0.22798728 29.41022096 -0.25604728 32.88720703 -0.30175781 C36.89879882 -0.35415724 40.90997823 -0.3730583 44.921875 -0.390625 C46.15049255 -0.41127014 47.37911011 -0.43191528 48.6449585 -0.45318604 C56.79148992 -0.45527129 63.44708753 0.94606872 71 4 C71 4.33 71 4.66 71 5 C70.16726562 4.9278125 69.33453125 4.855625 68.4765625 4.78125 C56.49986061 3.90668353 44.54984573 3.93202414 32.54931641 4.03710938 C23.31563415 4.10104777 14.20608754 3.74919659 5 3 C5 2.67 5 2.34 5 2 C3.35 1.67 1.7 1.34 0 1 C0 0.67 0 0.34 0 0 Z " fill="#6696FB" transform="translate(43,59)"/>
<path d="M0 0 C0.94875 0.33 1.8975 0.66 2.875 1 C1.885 2.98 0.895 4.96 -0.125 7 C-2.20718362 7.10832169 -4.29099129 7.18573541 -6.375 7.25 C-8.11523438 7.31960937 -8.11523438 7.31960937 -9.890625 7.390625 C-13.70166013 6.93035506 -14.78011755 5.94851556 -17.125 3 C-16.795 2.01 -16.465 1.02 -16.125 0 C-11.44979446 -2.33760277 -4.89787981 -1.41227209 0 0 Z " fill="#035AF8" transform="translate(106.125,11)"/>
<path d="M0 0 C1.32 0 2.64 0 4 0 C4 1.32 4 2.64 4 4 C5.98 4.66 7.96 5.32 10 6 C10.33 7.65 10.66 9.3 11 11 C11.66 11 12.32 11 13 11 C13 12.32 13 13.64 13 15 C13.66 15 14.32 15 15 15 C14.01 17.475 14.01 17.475 13 20 C9.66863403 18.57646476 7.72335243 16.8664687 5.375 14.125 C4.78460938 13.44695313 4.19421875 12.76890625 3.5859375 12.0703125 C0.34949635 7.84540164 0 5.34801118 0 0 Z " fill="#0358F8" transform="translate(148,30)"/>
<path d="M0 0 C1.1240625 0.07863281 2.248125 0.15726563 3.40625 0.23828125 C6.5 0.6875 6.5 0.6875 10.5 2.6875 C1.095 3.6775 1.095 3.6775 -8.5 4.6875 C-8.5 6.6675 -8.5 8.6475 -8.5 10.6875 C-7.50419922 10.67009766 -7.50419922 10.67009766 -6.48828125 10.65234375 C2.28207381 10.56271968 2.28207381 10.56271968 6.5 11.6875 C6.5 12.3475 6.5 13.0075 6.5 13.6875 C4.10054192 13.65429995 1.71011893 13.58698338 -0.6875 13.5 C-1.36103516 13.49419922 -2.03457031 13.48839844 -2.72851562 13.48242188 C-6.63761151 13.31080303 -8.40089739 12.76641983 -11.4921875 10.3046875 C-13.5 7.6875 -13.5 7.6875 -13.4375 5 C-12.5 2.6875 -12.5 2.6875 -10.5 0.6875 C-6.98667255 -0.6299978 -3.69585198 -0.28397028 0 0 Z " fill="#3867DA" transform="translate(100.5,34.3125)"/>
<path d="M0 0 C0.33 0.66 0.66 1.32 1 2 C3.64 1.67 6.28 1.34 9 1 C9.66 2.65 10.32 4.3 11 6 C10.34 6 9.68 6 9 6 C9 7.32 9 8.64 9 10 C10.32 10.33 11.64 10.66 13 11 C12.01 12.485 12.01 12.485 11 14 C7.5625 13.1875 7.5625 13.1875 4 12 C3.67 11.01 3.34 10.02 3 9 C0.98491642 8.26676204 0.98491642 8.26676204 -1 8 C-0.67 6.35 -0.34 4.7 0 3 C-0.66 2.67 -1.32 2.34 -2 2 C-1.34 1.34 -0.68 0.68 0 0 Z " fill="#0458F6" transform="translate(130,18)"/>
<path d="M0 0 C0.99 0.99 0.99 0.99 2 2 C-2.63703875 7.38494823 -7.85207896 10.58032163 -15.04397583 11.3079834 C-18.56073535 11.3658382 -22.05130819 11.29415842 -25.56640625 11.171875 C-26.84104233 11.14401917 -28.11567841 11.11616333 -29.42893982 11.08746338 C-32.78826001 11.01032854 -36.14605729 10.91522626 -39.50457764 10.81109619 C-42.94343719 10.70900234 -46.38283767 10.63095873 -49.82226562 10.55078125 C-56.54888582 10.38915064 -63.27453161 10.20377448 -70 10 C-70 9.67 -70 9.34 -70 9 C-69.28669525 8.99191315 -68.5733905 8.98382629 -67.83847046 8.97549438 C-61.10019636 8.8973957 -54.36211177 8.81005949 -47.62409019 8.71247292 C-44.16040387 8.66263091 -40.69674627 8.61630048 -37.23291016 8.578125 C-33.24624767 8.53403082 -29.25988809 8.4744295 -25.2734375 8.4140625 C-24.03572601 8.40251129 -22.79801453 8.39096008 -21.52279663 8.37905884 C-20.3620462 8.35918915 -19.20129578 8.33931946 -18.00537109 8.31884766 C-16.47981094 8.29886215 -16.47981094 8.29886215 -14.9234314 8.2784729 C-11.65592974 7.96722542 -9.01124274 7.308384 -6 6 C-5.67 5.01 -5.34 4.02 -5 3 C-3.67696283 2.6278958 -2.34262065 2.29369827 -1 2 C-0.67 1.34 -0.34 0.68 0 0 Z " fill="#1454F4" transform="translate(128,157)"/>
<path d="M0 0 C12.524689 1.87870335 22.3027725 9.04750796 31 18 C31.33 18.66 31.66 19.32 32 20 C30.68 20.33 29.36 20.66 28 21 C27.505 18.525 27.505 18.525 27 16 C25.88625 15.7525 24.7725 15.505 23.625 15.25 C22.42875 14.8375 21.2325 14.425 20 14 C19.690625 13.319375 19.38125 12.63875 19.0625 11.9375 C18.711875 11.298125 18.36125 10.65875 18 10 C15.30610212 9.31397632 12.79399918 9.18025801 10 9 C10 8.01 10 7.02 10 6 C9.34 6 8.68 6 8 6 C8 5.34 8 4.68 8 4 C5.36 3.34 2.72 2.68 0 2 C0 1.34 0 0.68 0 0 Z " fill="#225BE4" transform="translate(112,37)"/>
<path d="M0 0 C0.66 0 1.32 0 2 0 C4.13391403 6.25948114 4.58955515 12.42208127 5 19 C7.47266765 18.65555119 7.47266765 18.65555119 10 18 C11.52106634 14.95786733 11.37429338 11.71952428 11.5625 8.375 C11.60568359 7.66859375 11.64886719 6.9621875 11.69335938 6.234375 C11.79944751 4.48981463 11.90022889 2.74493303 12 1 C12.33 1 12.66 1 13 1 C13.25007388 3.39528594 13.47552126 5.78879325 13.6875 8.1875 C13.79674805 9.19780273 13.79674805 9.19780273 13.90820312 10.22851562 C14.1866441 13.58618624 14.06470653 15.84632199 12.75 18.96875 C11 21 11 21 7.3125 21.3125 C6.219375 21.209375 5.12625 21.10625 4 21 C1.47725544 17.05688666 1.33445161 12.79179211 0.875 8.25 C0.78863281 7.45722656 0.70226562 6.66445312 0.61328125 5.84765625 C0.40199946 3.89916859 0.20007533 1.94967024 0 0 Z " fill="#265ACE" transform="translate(143,81)"/>
<path d="M0 0 C6.11098958 7.25100065 10.63113475 15.40950345 11 25 C10.34 25 9.68 25 9 25 C8.34 21.7 7.68 18.4 7 15 C6.34 15 5.68 15 5 15 C4.01 12.36 3.02 9.72 2 7 C1.01 7.33 0.02 7.66 -1 8 C-0.67 5.36 -0.34 2.72 0 0 Z " fill="#3767DB" transform="translate(144,57)"/>
<path d="M0 0 C1.1446875 -0.00515625 2.289375 -0.0103125 3.46875 -0.015625 C6.5 0.25 6.5 0.25 9.5 2.25 C7.91058594 2.34087891 7.91058594 2.34087891 6.2890625 2.43359375 C4.90102779 2.51800127 3.51300768 2.60264917 2.125 2.6875 C1.42632812 2.72681641 0.72765625 2.76613281 0.0078125 2.80664062 C-3.87360492 2.99280134 -3.87360492 2.99280134 -7.5 4.25 C-7.5 5.9 -7.5 7.55 -7.5 9.25 C-5.19 9.91 -2.88 10.57 -0.5 11.25 C-2.25 12.375 -2.25 12.375 -4.5 13.25 C-7.16975522 12.30773345 -8.48615798 11.26384202 -10.5 9.25 C-10.3125 5.75 -10.3125 5.75 -9.5 2.25 C-5.92878282 -0.13081145 -4.23325367 -0.01906871 0 0 Z " fill="#5878D6" transform="translate(97.5,7.75)"/>
<path d="M0 0 C4.58996914 0.47035019 6.50145232 2.05824319 9.625 5.375 C10.38039062 6.16648437 11.13578125 6.95796875 11.9140625 7.7734375 C12.60242188 8.50820313 13.29078125 9.24296875 14 10 C14.99560446 11.0043763 15.99361042 12.00643067 17 13 C16.34 14.32 15.68 15.64 15 17 C14.50371094 16.34773438 14.00742188 15.69546875 13.49609375 15.0234375 C9.35275817 9.69292227 5.23363896 5.25233166 0 1 C0 0.67 0 0.34 0 0 Z " fill="#436FDA" transform="translate(143,36)"/>
<path d="M0 0 C3.84685385 1.24762828 6.02929405 2.3870391 8 6 C7.67 6.99 7.34 7.98 7 9 C7.33 9.99 7.66 10.98 8 12 C7.34 12 6.68 12 6 12 C5.67 10.35 5.34 8.7 5 7 C2.69 6.67 0.38 6.34 -2 6 C-1.34 4.02 -0.68 2.04 0 0 Z " fill="#2566EB" transform="translate(153,29)"/>
<path d="M0 0 C0.66 0 1.32 0 2 0 C2.99 3.63 3.98 7.26 5 11 C4.34 10.67 3.68 10.34 3 10 C2.67 10.66 2.34 11.32 2 12 C1.01 12 0.02 12 -1 12 C-0.67 8.04 -0.34 4.08 0 0 Z " fill="#3068E9" transform="translate(175,59)"/>
<path d="M0 0 C6.20970773 -0.33266291 10.28264895 0.54970669 16 3 C16 3.33 16 3.66 16 4 C10.39 3.67 4.78 3.34 -1 3 C-0.67 2.01 -0.34 1.02 0 0 Z " fill="#2D62DF" transform="translate(98,60)"/>
<path d="M0 0 C3.33511388 2.9901021 5.21521119 5.89498574 7 10 C7 10.66 7 11.32 7 12 C5.68 12 4.36 12 3 12 C0.58314288 7.77050005 -0.34833144 4.87664009 0 0 Z " fill="#3266E0" transform="translate(167,43)"/>
<path d="M0 0 C0.99 1.485 0.99 1.485 2 3 C5 3.41666667 5 3.41666667 8 3 C8.66 2.34 9.32 1.68 10 1 C10.99 1.33 11.98 1.66 13 2 C9.76657378 4.8638918 7.40071363 6.76838349 3 7 C2.01 6.34 1.02 5.68 0 5 C-0.1875 2.375 -0.1875 2.375 0 0 Z " fill="#4A70D5" transform="translate(22,188)"/>
<path d="M0 0 C0.66 0.66 1.32 1.32 2 2 C-1.36128094 5.65786455 -4.34497737 8.1784694 -9 10 C-9.99 9.67 -10.98 9.34 -12 9 C-10 8 -8 7 -6 6 C-5.67 5.01 -5.34 4.02 -5 3 C-3.67696283 2.6278958 -2.34262065 2.29369827 -1 2 C-0.67 1.34 -0.34 0.68 0 0 Z " fill="#3965D5" transform="translate(128,157)"/>
<path d="M0 0 C0.33 0 0.66 0 1 0 C1.25007388 2.39528594 1.47552126 4.78879325 1.6875 7.1875 C1.76033203 7.86103516 1.83316406 8.53457031 1.90820312 9.22851562 C2.28325735 13.75122837 1.90027386 16.45215905 -1 20 C-1.66 20 -2.32 20 -3 20 C-2.52433594 19.00419922 -2.52433594 19.00419922 -2.0390625 17.98828125 C-0.78815849 14.39075657 -0.54809948 10.9560199 -0.375 7.1875 C-0.33632812 6.49462891 -0.29765625 5.80175781 -0.2578125 5.08789062 C-0.16426432 3.39232985 -0.08107636 1.69620288 0 0 Z " fill="#7590E3" transform="translate(155,82)"/>
<path d="M0 0 C-2.14651159 1.89657531 -3.38272777 2.96102547 -6.2890625 3.14453125 C-7.05992188 3.03496094 -7.83078125 2.92539063 -8.625 2.8125 C-9.78902344 2.66748047 -9.78902344 2.66748047 -10.9765625 2.51953125 C-13 2 -13 2 -15 0 C-9.96266834 -1.5111995 -5.11828973 -0.64599773 0 0 Z M-7 3 C-5 4 -5 4 -5 4 Z " fill="#2E67E6" transform="translate(117,10)"/>
<path d="M0 0 C1.0546875 1.859375 1.0546875 1.859375 2 4 C1.125 6.25 1.125 6.25 0 8 C-0.66 8 -1.32 8 -2 8 C-2.66 9.98 -3.32 11.96 -4 14 C-5.06528748 11.26980214 -5.07998186 10.20701188 -4.00390625 7.421875 C-3.52824219 6.54015625 -3.05257813 5.6584375 -2.5625 4.75 C-2.08941406 3.85796875 -1.61632812 2.9659375 -1.12890625 2.046875 C-0.75636719 1.37140625 -0.38382813 0.6959375 0 0 Z " fill="#4473E3" transform="translate(27,66)"/>
<path d="M0 0 C0.99 0.33 1.98 0.66 3 1 C3 1.66 3 2.32 3 3 C4.32 2.34 5.64 1.68 7 1 C6.34 4.3 5.68 7.6 5 11 C0 3.5 0 3.5 0 0 Z " fill="#386EE0" transform="translate(138,70)"/>
<path d="M0 0 C4.82360189 -0.19294408 8.49646738 0.24252386 13 2 C12.01 3.485 12.01 3.485 11 5 C8.03 4.505 8.03 4.505 5 4 C5 3.01 5 2.02 5 1 C3.35 1 1.7 1 0 1 C0 0.67 0 0.34 0 0 Z " fill="#245DE7" transform="translate(102,45)"/>
<path d="M0 0 C0.66 0.66 1.32 1.32 2 2 C2.99 2.66 3.98 3.32 5 4 C5.33 3.34 5.66 2.68 6 2 C6.33 3.32 6.66 4.64 7 6 C3.35839192 7.21386936 2.66834531 6.6674695 -0.6875 5.0625 C-1.49574219 4.68222656 -2.30398437 4.30195313 -3.13671875 3.91015625 C-3.75160156 3.60980469 -4.36648437 3.30945313 -5 3 C-5 2.67 -5 2.34 -5 2 C-3.35 2 -1.7 2 0 2 C0 1.34 0 0.68 0 0 Z " fill="#386CE0" transform="translate(128,23)"/>
<path d="M0 0 C9.59453303 1.74259681 9.59453303 1.74259681 13 5 C11.35 5.33 9.7 5.66 8 6 C8 5.34 8 4.68 8 4 C5.36 3.34 2.72 2.68 0 2 C0 1.34 0 0.68 0 0 Z " fill="#5178DC" transform="translate(112,37)"/>
<path d="M0 0 C1.32 0 2.64 0 4 0 C2.50902342 3.7952131 0.24299151 5.61042731 -3 8 C-3.33 6.68 -3.66 5.36 -4 4 C-3.01 3.67 -2.02 3.34 -1 3 C-0.67 2.01 -0.34 1.02 0 0 Z " fill="#4272DD" transform="translate(43,177)"/>
<path d="M0 0 C-0.75 1.9375 -0.75 1.9375 -2 4 C-4.95319818 5.23843794 -5.87438528 5.04187157 -9 4 C-8.67 3.01 -8.34 2.02 -8 1 C-2.25 0 -2.25 0 0 0 Z " fill="#3961DC" transform="translate(182,98)"/>
<path d="M0 0 C1.32 0.66 2.64 1.32 4 2 C2.6875 3.5 2.6875 3.5 1 5 C0.01 5 -0.98 5 -2 5 C-2 5.66 -2 6.32 -2 7 C-2.99 7 -3.98 7 -5 7 C-4.67 6.01 -4.34 5.02 -4 4 C-3.34 3.67 -2.68 3.34 -2 3 C-1.67 2.34 -1.34 1.68 -1 1 C-0.67 0.67 -0.34 0.34 0 0 Z " fill="#0154F2" transform="translate(125,46)"/>
<path d="M0 0 C0.99 0 1.98 0 3 0 C2.6875 2.375 2.6875 2.375 2 5 C1.01 5.66 0.02 6.32 -1 7 C-1.625 5.1875 -1.625 5.1875 -2 3 C-1.34 2.01 -0.68 1.02 0 0 Z " fill="#1E5FEA" transform="translate(36,182)"/>
<path d="M0 0 C0.66 0 1.32 0 2 0 C2.0825 1.11375 2.165 2.2275 2.25 3.375 C2.57873787 7.05753944 2.57873787 7.05753944 5.0625 8.4375 C5.701875 8.623125 6.34125 8.80875 7 9 C5.35 9 3.7 9 2 9 C0.14223235 5.86501708 -0.20140476 3.62528568 0 0 Z " fill="#3F67D2" transform="translate(145,93)"/>
<path d="M0 0 C1.14926266 0.95421808 2.29430541 1.91352045 3.4375 2.875 C4.07558594 3.40867188 4.71367187 3.94234375 5.37109375 4.4921875 C7 6 7 6 8 8 C6.68 8.33 5.36 8.66 4 9 C3.67 7.35 3.34 5.7 3 4 C2.01 3.67 1.02 3.34 0 3 C0 2.01 0 1.02 0 0 Z " fill="#5077DE" transform="translate(136,49)"/>
<path d="M0 0 C4.43458973 1.3937282 6.87378374 3.60582235 10 7 C5.80639551 6.32902328 2.59665648 4.1441606 -1 2 C-0.67 1.34 -0.34 0.68 0 0 Z " fill="#4E72D3" transform="translate(143,21)"/>
<path d="M0 0 C4.59037956 1.14759489 5.33669182 2.29039218 8 6 C7.34 6.66 6.68 7.32 6 8 C4.02 5.36 2.04 2.72 0 0 Z " fill="#5274DC" transform="translate(131,62)"/>
<path d="M0 0 C1.9375 0.3125 1.9375 0.3125 4 1 C4.33 1.99 4.66 2.98 5 4 C6.49985609 5.66710346 6.49985609 5.66710346 8 7 C4.21388773 6.45912682 2.44599233 4.88277668 0 2 C0 1.34 0 0.68 0 0 Z M0 5 C2 6 2 6 2 6 Z " fill="#2360E8" transform="translate(139,19)"/>
<path d="M0 0 C0.33 0 0.66 0 1 0 C1.33 4.95 1.66 9.9 2 15 C1.01 15 0.02 15 -1 15 C-0.67 10.05 -0.34 5.1 0 0 Z " fill="#145BEF" transform="translate(172,85)"/>
<path d="M0 0 C0.598125 0.350625 1.19625 0.70125 1.8125 1.0625 C1.4825 1.7225 1.1525 2.3825 0.8125 3.0625 C-1.75 3.6875 -1.75 3.6875 -4.1875 4.0625 C-4.5175 2.7425 -4.8475 1.4225 -5.1875 0.0625 C-2.1875 -0.9375 -2.1875 -0.9375 0 0 Z " fill="#2C68EF" transform="translate(116.1875,64.9375)"/>
<path d="M0 0 C2 1 4 2 6 3 C6 3.99 6 4.98 6 6 C4.68 6 3.36 6 2 6 C1.34 4.02 0.68 2.04 0 0 Z " fill="#3768DC" transform="translate(130,45)"/>
<path d="M0 0 C2.03144641 0.93446535 4.03533587 1.93224776 6 3 C6 3.33 6 3.66 6 4 C3.125 4.1875 3.125 4.1875 0 4 C-0.66 3.01 -1.32 2.02 -2 1 C-1.34 0.67 -0.68 0.34 0 0 Z " fill="#0B4DE7" transform="translate(122,21)"/>
<path d="M0 0 C0.99 0 1.98 0 3 0 C3.33 1.65 3.66 3.3 4 5 C3.34 5 2.68 5 2 5 C2 5.66 2 6.32 2 7 C1.34 7 0.68 7 0 7 C0 4.69 0 2.38 0 0 Z " fill="#0353EA" transform="translate(165,57)"/>
</svg>
